<svg xmlns="http://www.w3.org/2000/svg" xmlns:xlink="http://www.w3.org/1999/xlink" width="500" zoomAndPan="magnify" viewBox="0 0 375 149.999998" height="200" preserveAspectRatio="xMidYMid meet" version="1.0"><defs><g/><clipPath id="0cef8dd872"><path d="M 142.808594 41.871094 L 258.5 41.871094 L 258.5 108.128906 L 142.808594 108.128906 Z M 142.808594 41.871094 " clip-rule="nonzero"/></clipPath><clipPath id="7c522eebc5"><path d="M 161.558594 41.871094 L 239.644531 41.871094 C 250 41.871094 258.394531 50.265625 258.394531 60.621094 L 258.394531 89.378906 C 258.394531 99.734375 250 108.128906 239.644531 108.128906 L 161.558594 108.128906 C 151.203125 108.128906 142.808594 99.734375 142.808594 89.378906 L 142.808594 60.621094 C 142.808594 50.265625 151.203125 41.871094 161.558594 41.871094 Z M 161.558594 41.871094 " clip-rule="nonzero"/></clipPath><clipPath id="1636f9fa42"><path d="M 247.070312 63.671875 L 269.722656 63.671875 L 269.722656 86.328125 L 247.070312 86.328125 Z M 247.070312 63.671875 " clip-rule="nonzero"/></clipPath><clipPath id="d4823286d2"><path d="M 258.394531 63.671875 C 252.140625 63.671875 247.070312 68.746094 247.070312 75 C 247.070312 81.253906 252.140625 86.328125 258.394531 86.328125 C 264.648438 86.328125 269.722656 81.253906 269.722656 75 C 269.722656 68.746094 264.648438 63.671875 258.394531 63.671875 Z M 258.394531 63.671875 " clip-rule="nonzero"/></clipPath><clipPath id="1b53c32087"><path d="M 131.484375 63.671875 L 154.136719 63.671875 L 154.136719 86.328125 L 131.484375 86.328125 Z M 131.484375 63.671875 " clip-rule="nonzero"/></clipPath><clipPath id="f6263b2edb"><path d="M 142.808594 63.671875 C 136.554688 63.671875 131.484375 68.746094 131.484375 75 C 131.484375 81.253906 136.554688 86.328125 142.808594 86.328125 C 149.066406 86.328125 154.136719 81.253906 154.136719 75 C 154.136719 68.746094 149.066406 63.671875 142.808594 63.671875 Z M 142.808594 63.671875 " clip-rule="nonzero"/></clipPath><clipPath id="1bae622cc0"><path d="M 178 50 L 211 50 L 211 100 L 178 100 Z M 178 50 " clip-rule="nonzero"/></clipPath><clipPath id="82b481b7fd"><path d="M 178.902344 56.675781 L 191.289062 50.921875 L 210.980469 93.320312 L 198.59375 99.074219 Z M 178.902344 56.675781 " clip-rule="nonzero"/></clipPath><clipPath id="7cd00bbf76"><path d="M 172.984375 50.832031 L 202.296875 50.832031 L 202.296875 99.269531 L 172.984375 99.269531 Z M 172.984375 50.832031 " clip-rule="nonzero"/></clipPath><clipPath id="b55964fc08"><path d="M 172.984375 50.832031 L 191.046875 50.832031 L 202.296875 75 L 191.046875 99.167969 L 172.984375 99.167969 L 184.234375 75 Z M 172.984375 50.832031 " clip-rule="nonzero"/></clipPath><clipPath id="d3596d607b"><path d="M 198.519531 50.921875 L 227.832031 50.921875 L 227.832031 99.359375 L 198.519531 99.359375 Z M 198.519531 50.921875 " clip-rule="nonzero"/></clipPath><clipPath id="c092812ba1"><path d="M 198.519531 50.921875 L 216.582031 50.921875 L 227.832031 75.089844 L 216.582031 99.257812 L 198.519531 99.257812 L 209.769531 75.089844 Z M 198.519531 50.921875 " clip-rule="nonzero"/></clipPath></defs><g clip-path="url(#0cef8dd872)"><g clip-path="url(#7c522eebc5)"><path fill="#dd571c" d="M 142.808594 41.871094 L 258.5 41.871094 L 258.5 108.128906 L 142.808594 108.128906 Z M 142.808594 41.871094 " fill-opacity="1" fill-rule="nonzero"/></g></g><g clip-path="url(#1636f9fa42)"><g clip-path="url(#d4823286d2)"><path fill="#ffffff" d="M 247.070312 63.671875 L 269.722656 63.671875 L 269.722656 86.328125 L 247.070312 86.328125 Z M 247.070312 63.671875 " fill-opacity="1" fill-rule="nonzero"/></g></g><g clip-path="url(#1b53c32087)"><g clip-path="url(#f6263b2edb)"><path fill="#ffffff" d="M 131.484375 63.671875 L 154.136719 63.671875 L 154.136719 86.328125 L 131.484375 86.328125 Z M 131.484375 63.671875 " fill-opacity="1" fill-rule="nonzero"/></g></g><g clip-path="url(#1bae622cc0)"><g clip-path="url(#82b481b7fd)"><path fill="#a6a6a6" d="M 178.902344 56.675781 L 191.289062 50.921875 L 210.976562 93.3125 L 198.589844 99.066406 Z M 178.902344 56.675781 " fill-opacity="1" fill-rule="nonzero"/></g></g><g clip-path="url(#7cd00bbf76)"><g clip-path="url(#b55964fc08)"><path fill="#ffffff" d="M 172.984375 50.832031 L 202.296875 50.832031 L 202.296875 99.15625 L 172.984375 99.15625 Z M 172.984375 50.832031 " fill-opacity="1" fill-rule="nonzero"/></g></g><g clip-path="url(#d3596d607b)"><g clip-path="url(#c092812ba1)"><path fill="#ffffff" d="M 198.519531 50.921875 L 227.832031 50.921875 L 227.832031 99.242188 L 198.519531 99.242188 Z M 198.519531 50.921875 " fill-opacity="1" fill-rule="nonzero"/></g></g><g fill="#000000" fill-opacity="1"><g transform="translate(8.002326, 97.124996)"><g><path d="M 33.03125 -3.8125 C 30.101562 -1.050781 26.710938 0.328125 22.859375 0.328125 C 19.960938 0.328125 17.222656 -0.316406 14.640625 -1.609375 C 12.054688 -2.898438 9.789062 -4.640625 7.84375 -6.828125 C 5.894531 -9.015625 4.351562 -11.5625 3.21875 -14.46875 C 2.082031 -17.382812 1.515625 -20.460938 1.515625 -23.703125 C 1.515625 -26.992188 2.09375 -30.050781 3.25 -32.875 C 4.40625 -35.695312 6 -38.144531 8.03125 -40.21875 C 10.070312 -42.300781 12.472656 -43.941406 15.234375 -45.140625 C 17.992188 -46.347656 20.953125 -46.953125 24.109375 -46.953125 C 26.078125 -46.953125 27.957031 -46.722656 29.75 -46.265625 C 31.539062 -45.804688 33.203125 -45.128906 34.734375 -44.234375 C 36.265625 -43.335938 37.632812 -42.265625 38.84375 -41.015625 C 40.050781 -39.765625 41.046875 -38.351562 41.828125 -36.78125 L 32.3125 -29.484375 C 31.519531 -31.328125 30.320312 -32.804688 28.71875 -33.921875 C 27.125 -35.035156 25.429688 -35.59375 23.640625 -35.59375 C 22.328125 -35.59375 21.113281 -35.285156 20 -34.671875 C 18.882812 -34.054688 17.921875 -33.203125 17.109375 -32.109375 C 16.296875 -31.015625 15.660156 -29.710938 15.203125 -28.203125 C 14.742188 -26.691406 14.515625 -25.039062 14.515625 -23.25 C 14.515625 -21.40625 14.742188 -19.738281 15.203125 -18.25 C 15.660156 -16.769531 16.304688 -15.492188 17.140625 -14.421875 C 17.972656 -13.347656 18.96875 -12.515625 20.125 -11.921875 C 21.289062 -11.328125 22.570312 -11.03125 23.96875 -11.03125 C 25.539062 -11.03125 27.0625 -11.421875 28.53125 -12.203125 C 30 -12.992188 31.367188 -14.132812 32.640625 -15.625 L 24.4375 -15.625 L 24.4375 -24.828125 L 43.609375 -24.828125 L 43.609375 0 L 33.03125 0 Z M 33.03125 -3.8125 "/></g></g></g><g fill="#000000" fill-opacity="1"><g transform="translate(53.907002, 97.124996)"><g><path d="M 37.234375 -11.171875 L 37.234375 0 L 4 0 L 4 -46.625 L 36.640625 -46.625 L 36.640625 -35.46875 L 16.8125 -35.46875 L 16.8125 -28.890625 L 33.75 -28.890625 L 33.75 -18.515625 L 16.8125 -18.515625 L 16.8125 -11.171875 Z M 37.234375 -11.171875 "/></g></g></g><g fill="#000000" fill-opacity="1"><g transform="translate(93.113142, 97.124996)"><g><path d="M 40.328125 -35.46875 L 26.921875 -35.46875 L 26.921875 0 L 14.125 0 L 14.125 -35.46875 L 0.65625 -35.46875 L 0.65625 -46.625 L 40.328125 -46.625 Z M 40.328125 -35.46875 "/></g></g></g><g fill="#000000" fill-opacity="1"><g transform="translate(264.621139, 97.124996)"><g><path d="M 33.03125 -3.8125 C 30.101562 -1.050781 26.710938 0.328125 22.859375 0.328125 C 19.960938 0.328125 17.222656 -0.316406 14.640625 -1.609375 C 12.054688 -2.898438 9.789062 -4.640625 7.84375 -6.828125 C 5.894531 -9.015625 4.351562 -11.5625 3.21875 -14.46875 C 2.082031 -17.382812 1.515625 -20.460938 1.515625 -23.703125 C 1.515625 -26.992188 2.09375 -30.050781 3.25 -32.875 C 4.40625 -35.695312 6 -38.144531 8.03125 -40.21875 C 10.070312 -42.300781 12.472656 -43.941406 15.234375 -45.140625 C 17.992188 -46.347656 20.953125 -46.953125 24.109375 -46.953125 C 26.078125 -46.953125 27.957031 -46.722656 29.75 -46.265625 C 31.539062 -45.804688 33.203125 -45.128906 34.734375 -44.234375 C 36.265625 -43.335938 37.632812 -42.265625 38.84375 -41.015625 C 40.050781 -39.765625 41.046875 -38.351562 41.828125 -36.78125 L 32.3125 -29.484375 C 31.519531 -31.328125 30.320312 -32.804688 28.71875 -33.921875 C 27.125 -35.035156 25.429688 -35.59375 23.640625 -35.59375 C 22.328125 -35.59375 21.113281 -35.285156 20 -34.671875 C 18.882812 -34.054688 17.921875 -33.203125 17.109375 -32.109375 C 16.296875 -31.015625 15.660156 -29.710938 15.203125 -28.203125 C 14.742188 -26.691406 14.515625 -25.039062 14.515625 -23.25 C 14.515625 -21.40625 14.742188 -19.738281 15.203125 -18.25 C 15.660156 -16.769531 16.304688 -15.492188 17.140625 -14.421875 C 17.972656 -13.347656 18.96875 -12.515625 20.125 -11.921875 C 21.289062 -11.328125 22.570312 -11.03125 23.96875 -11.03125 C 25.539062 -11.03125 27.0625 -11.421875 28.53125 -12.203125 C 30 -12.992188 31.367188 -14.132812 32.640625 -15.625 L 24.4375 -15.625 L 24.4375 -24.828125 L 43.609375 -24.828125 L 43.609375 0 L 33.03125 0 Z M 33.03125 -3.8125 "/></g></g></g><g fill="#000000" fill-opacity="1"><g transform="translate(310.525815, 97.124996)"><g><path d="M 23.765625 0.390625 C 20.441406 0.390625 17.410156 -0.285156 14.671875 -1.640625 C 11.941406 -2.992188 9.601562 -4.773438 7.65625 -6.984375 C 5.707031 -9.203125 4.195312 -11.734375 3.125 -14.578125 C 2.050781 -17.421875 1.515625 -20.351562 1.515625 -23.375 C 1.515625 -26.4375 2.070312 -29.390625 3.1875 -32.234375 C 4.300781 -35.085938 5.863281 -37.597656 7.875 -39.765625 C 9.894531 -41.929688 12.269531 -43.660156 15 -44.953125 C 17.738281 -46.242188 20.75 -46.890625 24.03125 -46.890625 C 27.363281 -46.890625 30.394531 -46.207031 33.125 -44.84375 C 35.863281 -43.488281 38.207031 -41.695312 40.15625 -39.46875 C 42.101562 -37.238281 43.601562 -34.695312 44.65625 -31.84375 C 45.707031 -29 46.234375 -26.085938 46.234375 -23.109375 C 46.234375 -20.046875 45.675781 -17.101562 44.5625 -14.28125 C 43.445312 -11.457031 41.898438 -8.960938 39.921875 -6.796875 C 37.953125 -4.628906 35.585938 -2.890625 32.828125 -1.578125 C 30.078125 -0.265625 27.054688 0.390625 23.765625 0.390625 Z M 14.515625 -23.25 C 14.515625 -21.675781 14.695312 -20.15625 15.0625 -18.6875 C 15.4375 -17.21875 16.019531 -15.910156 16.8125 -14.765625 C 17.601562 -13.628906 18.585938 -12.710938 19.765625 -12.015625 C 20.953125 -11.316406 22.332031 -10.96875 23.90625 -10.96875 C 25.519531 -10.96875 26.914062 -11.328125 28.09375 -12.046875 C 29.28125 -12.773438 30.242188 -13.71875 30.984375 -14.875 C 31.734375 -16.03125 32.296875 -17.351562 32.671875 -18.84375 C 33.046875 -20.332031 33.234375 -21.84375 33.234375 -23.375 C 33.234375 -24.957031 33.035156 -26.476562 32.640625 -27.9375 C 32.242188 -29.40625 31.660156 -30.695312 30.890625 -31.8125 C 30.128906 -32.9375 29.15625 -33.835938 27.96875 -34.515625 C 26.789062 -35.191406 25.414062 -35.53125 23.84375 -35.53125 C 22.21875 -35.53125 20.820312 -35.175781 19.65625 -34.46875 C 18.5 -33.769531 17.535156 -32.84375 16.765625 -31.6875 C 16.003906 -30.53125 15.4375 -29.21875 15.0625 -27.75 C 14.695312 -26.28125 14.515625 -24.78125 14.515625 -23.25 Z M 14.515625 -23.25 "/></g></g></g></svg>