<?xml version="1.0" encoding="UTF-8"?>
<svg version="1.1" xmlns="http://www.w3.org/2000/svg" width="482" height="163">
<path d="M0 0 C1.12280869 -0.00852997 2.24561737 -0.01705994 3.40245056 -0.02584839 C5.2361319 -0.02448883 5.2361319 -0.02448883 7.1068573 -0.02310181 C8.40171555 -0.02981903 9.69657379 -0.03653625 11.03067017 -0.04345703 C14.57627168 -0.06109577 18.12177661 -0.06581154 21.66741776 -0.0670886 C23.88517839 -0.06851212 26.10291462 -0.07278554 28.32066917 -0.07808304 C36.06516956 -0.09657721 43.80960119 -0.10475454 51.55412292 -0.10317993 C58.76088163 -0.10197912 65.96734057 -0.12307101 73.17402345 -0.15466726 C79.37123987 -0.18086458 85.56835861 -0.19154577 91.76562995 -0.19026911 C95.46257205 -0.18976043 99.15924771 -0.19539093 102.85613441 -0.21662521 C106.98288406 -0.23968206 111.10896705 -0.23046568 115.23576355 -0.21841431 C116.45214508 -0.22965332 117.66852661 -0.24089233 118.92176819 -0.25247192 C126.92026595 -0.19315865 132.46045445 0.78426655 138.60758972 6.26742554 C139.14641785 6.92742554 139.68524597 7.58742554 140.24040222 8.26742554 C140.7946991 8.92742554 141.34899597 9.58742554 141.92008972 10.26742554 C144.47970248 13.80937616 145.62021228 16.41148128 145.56071472 20.81430054 C145.55104675 22.08080444 145.55104675 22.08080444 145.54118347 23.37289429 C145.51604675 24.68193726 145.51604675 24.68193726 145.49040222 26.01742554 C145.48137878 26.9055896 145.47235535 27.79375366 145.46305847 28.70883179 C145.439548 30.89530611 145.40668721 33.08122648 145.36540222 35.26742554 C143.39193217 35.71298218 141.41846212 36.15853882 139.44499207 36.60409546 C135.1993595 37.95833163 132.35944733 40.68599014 129.99040222 44.45492554 C128.62795332 50.58594562 128.28562722 56.11975495 131.49040222 61.70492554 C135.1045529 66.76882027 139.43797061 68.15603211 145.36540222 69.26742554 C145.47441727 72.10181691 145.55318126 74.93192757 145.61540222 77.76742554 C145.64891785 78.55890991 145.68243347 79.35039429 145.71696472 80.16586304 C145.83183017 87.17265535 143.99958547 92.14985609 139.47087097 97.50961304 C138.83794128 98.04844116 138.2050116 98.58726929 137.55290222 99.14242554 C136.92770691 99.69672241 136.3025116 100.25101929 135.65837097 100.82211304 C128.91606243 105.07194976 121.46406124 104.55827925 113.76408386 104.54208374 C111.87987984 104.54975014 111.87987984 104.54975014 109.95761108 104.55757141 C106.52781588 104.57090661 103.09813123 104.57154628 99.66831517 104.56900811 C96.79815494 104.56793476 93.92801675 104.572831 91.05786127 104.57761353 C84.28348624 104.58868956 77.50916668 104.58915674 70.73478699 104.58309937 C63.7609283 104.57705925 56.78727134 104.5893758 49.81344706 104.61066943 C43.81151902 104.62831735 37.80965502 104.63428181 31.807702 104.63103169 C28.22933074 104.62922391 24.65110343 104.63180429 21.07275581 104.64574623 C17.08041013 104.66072076 13.08847209 104.65132668 9.09611511 104.63973999 C7.33236038 104.6512056 7.33236038 104.6512056 5.53297424 104.66290283 C-2.24334791 104.61307685 -9.24557184 103.88319299 -15.38459778 98.57992554 C-15.91569153 98.14293335 -16.44678528 97.70594116 -16.99397278 97.25570679 C-22.03382803 91.1478822 -23.21386641 85.54323082 -22.88459778 77.76742554 C-22.8665509 76.94500366 -22.84850403 76.12258179 -22.82991028 75.27523804 C-22.78332608 73.27211749 -22.71160477 71.26960733 -22.63459778 69.26742554 C-22.04291809 69.10887085 -21.4512384 68.95031616 -20.84162903 68.78695679 C-14.84835221 67.01732693 -10.89011498 64.98942743 -7.52912903 59.44320679 C-5.79383085 55.22241602 -6.1034286 50.73701983 -6.63459778 46.26742554 C-8.6130252 42.31057069 -10.74985867 39.42561393 -14.63459778 37.26742554 C-17.28271716 36.51513381 -19.95606986 35.90723585 -22.63459778 35.26742554 C-22.74361283 32.43303416 -22.82237682 29.60292351 -22.88459778 26.76742554 C-22.9181134 25.97594116 -22.95162903 25.18445679 -22.98616028 24.36898804 C-23.10105601 17.36034857 -21.30704973 12.31710232 -16.66975403 7.02523804 C-16.01877747 6.48640991 -15.3678009 5.94758179 -14.69709778 5.39242554 C-14.04869934 4.83812866 -13.4003009 4.28383179 -12.73225403 3.71273804 C-8.60268058 0.8674081 -4.97598265 0.01713788 0 0 Z " fill="#DB561D" transform="translate(196.6345977783203,29.732574462890625)"/>
<path d="M0 0 C20.94223234 -3.00042424 20.94223234 -3.00042424 27.21679688 1.63916016 C31.01389621 6.07014009 33.43503855 11.23319133 35.82519531 16.52050781 C37.51313347 20.08299741 39.65583441 23.25272286 41.875 26.5 C45.09353197 31.47356481 48.00825015 36.52193815 50.7109375 41.79296875 C51.94369082 43.90359186 53.18981311 45.37506616 55 47 C56.20842172 45.30640147 57.39103622 43.59436954 58.5625 41.875 C59.22378906 40.92367187 59.88507813 39.97234375 60.56640625 38.9921875 C62.37639625 35.21438821 62.32243363 33.9673009 61 30 C59.27908011 26.79733259 57.31777072 23.78065243 55.3125 20.75 C54.21933617 19.0603588 53.12688128 17.37025871 52.03515625 15.6796875 C51.51066895 14.87370117 50.98618164 14.06771484 50.44580078 13.23730469 C48.66275651 10.4781325 46.94318144 7.69016915 45.25 4.875 C44.80140625 4.12992188 44.3528125 3.38484375 43.890625 2.6171875 C43 1 43 1 43 0 C51.22704183 -1.38570905 59.92909363 -2.60656227 68 0 C74.06086073 4.91986552 77.3542834 12.17851904 80.59130859 19.13574219 C82.01657878 22.03370923 83.66143714 24.64957815 85.42578125 27.3515625 C87.16835959 30.2436532 87.97393327 31.64899802 88.2265625 35.05078125 C86.02374496 40.34736483 82.85811757 44.97050598 79.67822266 49.72387695 C77.26605835 53.35475622 75.15235353 56.60918007 73.5625 60.6875 C72.19013422 64.15452934 70.87220303 65.64277764 68 68 C59.90991337 70.31881464 50.08991435 70.27655881 42 68 C37.3461106 64.8966442 35.54465199 60.25470398 34 55 C31.18232499 58.3172144 31.18232499 58.3172144 29.0715332 62.09570312 C27.93211521 64.53532759 26.98532649 66.16587929 25 68 C20.70004171 69.00508556 16.5731589 68.75552298 12.1875 68.5 C11.01767578 68.46390625 9.84785156 68.4278125 8.64257812 68.390625 C5.75838169 68.29644716 2.88086549 68.16507439 0 68 C3.3112479 61.05366802 7.01995176 54.52760883 11.1875 48.0625 C11.72052734 47.22654297 12.25355469 46.39058594 12.80273438 45.52929688 C14.84274849 42.33455779 16.89735025 39.15397463 19 36 C18.95489899 29.96548464 15.53127365 25.65363165 12.3125 20.8125 C11.21749135 19.12666052 10.12502543 17.43916662 9.03515625 15.75 C8.51066895 14.93789063 7.98618164 14.12578125 7.44580078 13.2890625 C4.72641748 8.98360187 2.34844096 4.51653421 0 0 Z " fill="#F9F6F4" transform="translate(214,48)"/>
<path d="M0 0 C7.41638505 5.1952342 7.41638505 5.1952342 8.71875 9.22265625 C8.8115625 9.80917969 8.904375 10.39570312 9 11 C7.42982807 12.36940568 5.84334609 13.72012895 4.25 15.0625 C3.36828125 15.81660156 2.4865625 16.57070312 1.578125 17.34765625 C-1 19 -1 19 -3.21484375 18.87109375 C-5 18 -5 18 -6.8125 16 C-9.82501155 13.24570372 -11.96620684 13.0707683 -16 13 C-19.35306939 14.29550408 -20.70830744 15.59766543 -22.8125 18.5 C-24.86900794 24.56128655 -24.86900794 30.43871345 -22.8125 36.5 C-20.70830744 39.40233457 -19.35306939 40.70449592 -16 42 C-11.61983396 41.76534825 -7.98308594 40.81049361 -4 39 C-4 38.34 -4 37.68 -4 37 C-4.928125 37.185625 -5.85625 37.37125 -6.8125 37.5625 C-10 38 -10 38 -13 37 C-13 33.04 -13 29.08 -13 25 C-9.02078906 24.97317386 -5.04175659 24.95324607 -1.0625 24.9375 C0.07380859 24.92912109 1.21011719 24.92074219 2.38085938 24.91210938 C3.46044922 24.90888672 4.54003906 24.90566406 5.65234375 24.90234375 C7.15269165 24.89448853 7.15269165 24.89448853 8.68334961 24.88647461 C11 25 11 25 12 26 C12.10012401 28.20650656 12.1308118 30.41622386 12.1328125 32.625 C12.13376923 33.28709473 12.13472595 33.94918945 12.13571167 34.63134766 C12.13639326 36.03352961 12.13454042 37.4357147 12.13037109 38.83789062 C12.12502246 40.99095713 12.1303167 43.14381502 12.13671875 45.296875 C12.13605796 46.65625046 12.13477679 48.0156258 12.1328125 49.375 C12.13168457 50.62023437 12.13055664 51.86546875 12.12939453 53.1484375 C12 56 12 56 11 57 C8.81360547 57.07258946 6.62499611 57.08373783 4.4375 57.0625 C2.64119141 57.04896484 2.64119141 57.04896484 0.80859375 57.03515625 C-0.11824219 57.02355469 -1.04507813 57.01195312 -2 57 C-2.33 56.01 -2.66 55.02 -3 54 C-3.825 54.474375 -4.65 54.94875 -5.5 55.4375 C-12.15689925 58.40933002 -17.56735644 58.58082398 -24.40625 56.26953125 C-32.33613046 52.38818916 -37.8329874 46.12407581 -41 38 C-43.56595382 29.8210222 -43.09906895 20.23746577 -39.5625 12.5 C-35.13643015 4.78035234 -28.8305943 -0.16801097 -20.25 -2.56640625 C-13.14506609 -3.93558622 -6.50188101 -3.27960841 0 0 Z " fill="#F9F9F9" transform="translate(48,53)"/>
<path d="M0 0 C3.91233432 3.14282757 4.97118822 4.69554868 6.94921875 9.640625 C1.00921875 14.095625 1.00921875 14.095625 -5.05078125 18.640625 C-6.70078125 16.990625 -8.35078125 15.340625 -10.05078125 13.640625 C-12.82816696 11.60387548 -14.01929291 11.63950042 -17.55078125 11.765625 C-21.58674023 12.77461474 -22.806855 13.15007306 -25.05078125 16.640625 C-27.18623982 23.12100176 -27.45858234 28.36553243 -25.0703125 34.765625 C-23.94687814 36.83171118 -22.86989584 38.15144786 -21.05078125 39.640625 C-16.89376919 40.73870366 -14.71245875 40.89794403 -10.67578125 39.328125 C-7.96988997 37.9042914 -7.96988997 37.9042914 -7.05078125 35.640625 C-8.16453125 35.82625 -9.27828125 36.011875 -10.42578125 36.203125 C-14.05078125 36.640625 -14.05078125 36.640625 -16.05078125 35.640625 C-16.07765404 33.82820448 -16.0971184 32.01567267 -16.11328125 30.203125 C-16.12488281 29.19378906 -16.13648438 28.18445313 -16.1484375 27.14453125 C-16.05078125 24.640625 -16.05078125 24.640625 -15.05078125 23.640625 C-13.27006879 23.55336277 -11.48594985 23.53363459 -9.703125 23.54296875 C-8.73109131 23.54546631 -7.75905762 23.54796387 -6.75756836 23.55053711 C-4.89177124 23.56419312 -4.89177124 23.56419312 -2.98828125 23.578125 C0.95109375 23.59875 4.89046875 23.619375 8.94921875 23.640625 C8.94921875 34.200625 8.94921875 44.760625 8.94921875 55.640625 C4.32921875 55.640625 -0.29078125 55.640625 -5.05078125 55.640625 C-5.05078125 54.650625 -5.05078125 53.660625 -5.05078125 52.640625 C-5.65664063 52.94097656 -6.2625 53.24132812 -6.88671875 53.55078125 C-13.23764629 56.43312529 -18.24032907 57.5689527 -25.05078125 55.640625 C-33.14221573 51.9420884 -39.14798982 45.57440175 -43.05078125 37.640625 C-46.02996256 28.71843767 -45.68632727 20.30896048 -42.05078125 11.640625 C-37.50685991 4.02825103 -31.36222256 -1.48300056 -22.73828125 -4.046875 C-14.55432174 -4.9984982 -7.06523474 -4.68324131 0 0 Z " fill="#F8F8F8" transform="translate(397.05078125,54.359375)"/>
<path d="M0 0 C6.51585472 5.10740578 10.33504924 12.67623081 11.9140625 20.71484375 C12.83639447 29.49346765 10.93005665 37.3636292 5.7265625 44.52734375 C0.61601111 50.61696919 -5.2461417 54.17488386 -13.0859375 55.71484375 C-21.9695065 56.4312606 -28.42991432 54.44253954 -35.3359375 48.71484375 C-42.52505989 41.74968156 -45.31861478 35.0844715 -45.6484375 25.08984375 C-45.24972333 14.73376793 -41.6630034 7.74955125 -34.0859375 0.71484375 C-23.36534829 -7.29588477 -11.10817685 -6.84380184 0 0 Z M-24.0859375 12.71484375 C-27.89394452 16.62576988 -28.41163861 19.93779468 -28.5859375 25.21484375 C-28.41163861 30.49189282 -27.89394452 33.80391762 -24.0859375 37.71484375 C-21.02440988 40.27990744 -19.60848635 40.71484375 -15.5859375 40.71484375 C-11.33837681 39.50125498 -9.75140194 38.21802559 -7.0859375 34.71484375 C-4.62860108 29.01829114 -4.73007019 23.6786949 -6.0859375 17.71484375 C-7.89045204 14.10581467 -9.05564307 12.28150569 -12.5859375 10.33984375 C-17.48811688 9.11429891 -20.14149948 9.75651523 -24.0859375 12.71484375 Z " fill="#F8F8F8" transform="translate(456.0859375,55.28515625)"/>
<path d="M0 0 C13.86 0 27.72 0 42 0 C42 4.62 42 9.24 42 14 C33.75 14 25.5 14 17 14 C17 16.64 17 19.28 17 22 C23.93 22 30.86 22 38 22 C38 26.62 38 31.24 38 36 C31.07 36 24.14 36 17 36 C17 38.64 17 41.28 17 44 C17.7520874 43.99476318 18.5041748 43.98952637 19.27905273 43.98413086 C22.66519342 43.96342773 26.05132084 43.95036123 29.4375 43.9375 C30.62150391 43.92912109 31.80550781 43.92074219 33.02539062 43.91210938 C34.15009766 43.90888672 35.27480469 43.90566406 36.43359375 43.90234375 C37.47572021 43.89710693 38.51784668 43.89187012 39.59155273 43.88647461 C42 44 42 44 43 45 C43 49.62 43 54.24 43 59 C28.81 59 14.62 59 0 59 C0 39.53 0 20.06 0 0 Z " fill="#F8F8F8" transform="translate(67,51)"/>
<path d="M0 0 C20.95085799 -3.00166005 20.95085799 -3.00166005 27.23291016 1.65527344 C31.04146868 6.09296532 33.46805631 11.23767558 35.84179688 16.54589844 C37.49223754 20.04299574 39.627293 23.13362509 41.8125 26.3125 C43.85835959 29.37108051 44.97630538 31.10833415 45.07421875 34.79296875 C43.81032818 38.56625659 41.90909622 41.27917186 39.62353516 44.51123047 C37.94187537 47.08910113 36.70335235 49.66451965 35.44921875 52.47265625 C29.95283604 63.98451888 29.95283604 63.98451888 25 68 C16.93669096 70.53078185 8.21500279 69.31075147 0 68 C3.3112479 61.05366802 7.01995176 54.52760883 11.1875 48.0625 C11.72052734 47.22654297 12.25355469 46.39058594 12.80273438 45.52929688 C14.84274849 42.33455779 16.89735025 39.15397463 19 36 C18.95489899 29.96548464 15.53127365 25.65363165 12.3125 20.8125 C11.21749135 19.12666052 10.12502543 17.43916662 9.03515625 15.75 C8.51066895 14.93789063 7.98618164 14.12578125 7.44580078 13.2890625 C4.72641748 8.98360187 2.34844096 4.51653421 0 0 Z " fill="#F9F7F6" transform="translate(214,48)"/>
<path d="M0 0 C16.83 0 33.66 0 51 0 C51 4.62 51 9.24 51 14 C45.39 14 39.78 14 34 14 C34 28.85 34 43.7 34 59 C28.39 59 22.78 59 17 59 C17 44.15 17 29.3 17 14 C11.39 14 5.78 14 0 14 C0 9.38 0 4.76 0 0 Z " fill="#F8F8F8" transform="translate(112,51)"/>
<path d="M0 0 C2.560881 3.24640915 4.62476717 6.66940716 6.6875 10.25 C7.31011719 11.32765625 7.93273437 12.4053125 8.57421875 13.515625 C9.27998047 14.74539062 9.27998047 14.74539062 10 16 C8.40079629 18.60733212 6.79591077 21.21085643 5.1875 23.8125 C4.73568359 24.55048828 4.28386719 25.28847656 3.81835938 26.04882812 C3.15610352 27.11713867 3.15610352 27.11713867 2.48046875 28.20703125 C1.87561646 29.18893433 1.87561646 29.18893433 1.25854492 30.19067383 C0 32 0 32 -3 35 C-5.97 30.38 -8.94 25.76 -12 21 C-10.741875 18.7725 -9.48375 16.545 -8.1875 14.25 C-7.79715576 13.55551758 -7.40681152 12.86103516 -7.00463867 12.14550781 C-5.17281545 8.92179657 -3.22670998 5.96894663 -1 3 C-0.67 2.01 -0.34 1.02 0 0 Z " fill="#D6D1CF" transform="translate(259,81)"/>
<path d="M0 0 C4.11869448 3.81434984 6.78444659 8.65562469 9.75 13.375 C10.36488281 14.32117188 10.97976563 15.26734375 11.61328125 16.2421875 C12.18949219 17.16 12.76570313 18.0778125 13.359375 19.0234375 C13.89014648 19.85794434 14.42091797 20.69245117 14.96777344 21.55224609 C16.23108073 24.54796958 15.98931518 25.94260349 15 29 C13.37109375 31.89453125 13.37109375 31.89453125 11.4375 34.8125 C10.79683594 35.78832031 10.15617187 36.76414063 9.49609375 37.76953125 C9.00238281 38.50558594 8.50867188 39.24164063 8 40 C4.40653601 36.77799521 2.12611498 33.11763363 -0.1875 28.9375 C-0.72020508 28.00067383 -0.72020508 28.00067383 -1.26367188 27.04492188 C-2.75740832 24.38907549 -4.03409615 21.89771156 -5 19 C-4.34 19 -3.68 19 -3 19 C-3 18.34 -3 17.68 -3 17 C-2.21625 17.04125 -1.4325 17.0825 -0.625 17.125 C2.16116119 17.28728734 2.16116119 17.28728734 4 15 C4.66 14.67 5.32 14.34 6 14 C4.87811159 10.91480689 3.5383537 8.13194351 1.875 5.3125 C0 2 0 2 0 0 Z " fill="#D85B24" transform="translate(261,56)"/>
<path d="M0 0 C0.66 0 1.32 0 2 0 C2 0.66 2 1.32 2 2 C3.98 2.495 3.98 2.495 6 3 C-0.55760812 5.39030941 -6.80378782 5.26887676 -13.72827148 5.22705078 C-15.63175102 5.22748886 -15.63175102 5.22748886 -17.57368469 5.22793579 C-21.03602707 5.22850728 -24.49822957 5.21678627 -27.96053958 5.20278788 C-31.58534448 5.19024629 -35.21015294 5.18910732 -38.8349762 5.18673706 C-45.69130512 5.18053234 -52.5475699 5.16413522 -59.40387064 5.14403808 C-67.21282336 5.12164764 -75.02177922 5.11067776 -82.83075607 5.10064721 C-98.88720819 5.07976805 -114.9435959 5.04461176 -131 5 C-131 4.67 -131 4.34 -131 4 C-88.43 4 -45.86 4 -2 4 C-1.34 2.68 -0.68 1.36 0 0 Z " fill="#B7552A" transform="translate(324,129)"/>
<path d="M0 0 C8.25 0 16.5 0 25 0 C25 0.33 25 0.66 25 1 C23.94039062 1.02578125 22.88078125 1.0515625 21.7890625 1.078125 C20.40099999 1.1343978 19.01298075 1.19174533 17.625 1.25 C16.92632812 1.26417969 16.22765625 1.27835938 15.5078125 1.29296875 C13.22282354 1.36035782 13.22282354 1.36035782 10 2 C7.52395983 5.10822064 7.82407249 8.12959477 8 12 C8.66 12 9.32 12 10 12 C9.67 13.32 9.34 14.64 9 16 C7.49734474 13.5224077 5.99777081 11.04304235 4.5 8.5625 C4.07074219 7.85544922 3.64148438 7.14839844 3.19921875 6.41992188 C0 1.11328125 0 1.11328125 0 0 Z " fill="#FCF2E9" transform="translate(214,48)"/>
<path d="M0 0 C0.99 0.33 1.98 0.66 3 1 C2.01 1.33 1.02 1.66 0 2 C0 2.99 0 3.98 0 5 C-0.763125 5.020625 -1.52625 5.04125 -2.3125 5.0625 C-5.41389118 5.79660949 -5.41389118 5.79660949 -6.8125 9.5625 C-7.204375 10.696875 -7.59625 11.83125 -8 13 C-8.99 13 -9.98 13 -11 13 C-11 14.32 -11 15.64 -11 17 C-11.66 17 -12.32 17 -13 17 C-13 22.28 -13 27.56 -13 33 C-12.01 33.33 -11.02 33.66 -10 34 C-11.32 34 -12.64 34 -14 34 C-14.10901505 31.16560863 -14.18777904 28.33549797 -14.25 25.5 C-14.28351563 24.70851563 -14.31703125 23.91703125 -14.3515625 23.1015625 C-14.46697088 16.06165144 -12.69323433 10.96255777 -7.9296875 5.72265625 C-7.25164062 5.17480469 -6.57359375 4.62695312 -5.875 4.0625 C-5.19179687 3.49660156 -4.50859375 2.93070313 -3.8046875 2.34765625 C-2 1 -2 1 0 0 Z " fill="#C55A2F" transform="translate(188,31)"/>
<path d="M0 0 C1.65 0 3.3 0 5 0 C3.68 0.33 2.36 0.66 1 1 C1 5.95 1 10.9 1 16 C1.66 16 2.32 16 3 16 C3 17.98 3 19.96 3 22 C3.66 22 4.32 22 5 22 C5 22.99 5 23.98 5 25 C5.99 25 6.98 25 8 25 C8 24.34 8 23.68 8 23 C8.66 23.33 9.32 23.66 10 24 C10 24.66 10 25.32 10 26 C9.34 26 8.68 26 8 26 C7.67 26.99 7.34 27.98 7 29 C6.0158875 27.73299277 5.03788503 26.4612381 4.0625 25.1875 C3.51722656 24.47980469 2.97195312 23.77210937 2.41015625 23.04296875 C0.27346442 19.94742906 -0.12361772 17.43009804 -0.09765625 13.76953125 C-0.09282227 12.56586914 -0.09282227 12.56586914 -0.08789062 11.33789062 C-0.07951172 10.50451172 -0.07113281 9.67113281 -0.0625 8.8125 C-0.05798828 7.96751953 -0.05347656 7.12253906 -0.04882812 6.25195312 C-0.03705403 4.16793845 -0.0191189 2.08396023 0 0 Z " fill="#C45C2E" transform="translate(174,99)"/>
<path d="M0 0 C2.50851871 2.10391892 3.87451864 3.67522473 5.0625 6.75 C4.97232481 11.43911004 2.71503296 14.29853639 0 18 C-0.8520069 15.4439793 -1.19878535 13.5154763 -1.4375 10.875 C-1.623125 9.59625 -1.80875 8.3175 -2 7 C-2.66 6.67 -3.32 6.34 -4 6 C-1.83125748 6.50603992 -0.00032373 6.99983813 2 8 C2.33 7.34 2.66 6.68 3 6 C2.34 6 1.68 6 1 6 C0.67 4.02 0.34 2.04 0 0 Z " fill="#D7571C" transform="translate(229,74)"/>
<path d="M0 0 C0.33 0 0.66 0 1 0 C1.39258795 4.44933005 0.41449309 7.25337279 -2 11 C-3.64991582 11.70710678 -5.31562256 12.37943989 -7 13 C-7.75243555 14.92638012 -7.75243555 14.92638012 -8 17 C-8.66 17.99 -9.32 18.98 -10 20 C-10.66 19.67 -11.32 19.34 -12 19 C-10.02656652 15.82972593 -8.04532029 12.66441014 -6.0625 9.5 C-5.21655273 8.14068359 -5.21655273 8.14068359 -4.35351562 6.75390625 C-3.81533203 5.89667969 -3.27714844 5.03945312 -2.72265625 4.15625 C-2.22515869 3.36025391 -1.72766113 2.56425781 -1.21508789 1.74414062 C-0.81410889 1.16857422 -0.41312988 0.59300781 0 0 Z " fill="#FBE6D6" transform="translate(230,89)"/>
<path d="M0 0 C4.95 0 9.9 0 15 0 C15 0.33 15 0.66 15 1 C20.445 1.495 20.445 1.495 26 2 C26 2.33 26 2.66 26 3 C17.75 3 9.5 3 1 3 C0.67 2.01 0.34 1.02 0 0 Z " fill="#DC7344" transform="translate(256,45)"/>
<path d="M0 0 C0.6875 1.625 0.6875 1.625 1 4 C-0.34805991 7.20966645 -1.53401431 9.53401431 -4 12 C-7.625 12.125 -7.625 12.125 -11 12 C-10.443125 11.608125 -9.88625 11.21625 -9.3125 10.8125 C-5.38376366 7.73322016 -1.91246222 4.69422546 0 0 Z " fill="#C25A2A" transform="translate(190,87)"/>
<path d="M0 0 C0.33 0 0.66 0 1 0 C1.1875 2.375 1.1875 2.375 1 5 C0.01 5.66 -0.98 6.32 -2 7 C-3.07136051 9.30144109 -4.07989717 11.6340213 -5 14 C-5.99 13.67 -6.98 13.34 -8 13 C-6.69181533 10.83061859 -5.37874076 8.6644848 -4.0625 6.5 C-3.68931641 5.87996094 -3.31613281 5.25992188 -2.93164062 4.62109375 C-1.9818016 3.06370003 -0.99386689 1.5296725 0 0 Z " fill="#CE6639" transform="translate(290,102)"/>
<path d="M0 0 C0.66 0.33 1.32 0.66 2 1 C1.01 2.485 1.01 2.485 0 4 C-2.52197266 4.34057617 -2.52197266 4.34057617 -5.6640625 4.29296875 C-6.78554688 4.28330078 -7.90703125 4.27363281 -9.0625 4.26367188 C-10.238125 4.23853516 -11.41375 4.21339844 -12.625 4.1875 C-14.40003906 4.16719727 -14.40003906 4.16719727 -16.2109375 4.14648438 C-19.14107539 4.11103916 -22.07031459 4.06162769 -25 4 C-25 3.67 -25 3.34 -25 3 C-24.31373535 2.98018066 -23.6274707 2.96036133 -22.92041016 2.93994141 C-19.82154221 2.84489055 -16.72336706 2.73513153 -13.625 2.625 C-12.54476563 2.5940625 -11.46453125 2.563125 -10.3515625 2.53125 C-9.3203125 2.49257812 -8.2890625 2.45390625 -7.2265625 2.4140625 C-6.27346191 2.3826416 -5.32036133 2.3512207 -4.33837891 2.31884766 C-1.81104824 2.21444204 -1.81104824 2.21444204 0 0 Z " fill="#FEE6D4" transform="translate(282,112)"/>
<path d="M0 0 C2.54131358 2.30283254 4.07110295 4.67313793 5.6875 7.6875 C6.12449219 8.49574219 6.56148437 9.30398437 7.01171875 10.13671875 C7.33785156 10.75160156 7.66398438 11.36648437 8 12 C6.35 12.33 4.7 12.66 3 13 C3 12.34 3 11.68 3 11 C2.34 10.67 1.68 10.34 1 10 C1.20625 9.46375 1.4125 8.9275 1.625 8.375 C2.1314747 5.16732692 1.15400225 2.98682934 0 0 Z " fill="#FCE9DD" transform="translate(248,64)"/>
<path d="M0 0 C2.56316239 2.49836334 4.47384477 4.71876625 6 8 C5.6875 11.3125 5.6875 11.3125 5 14 C2.42853943 11.42853943 2.19882003 9.3949583 1.375 5.875 C1.11460937 4.77929688 0.85421875 3.68359375 0.5859375 2.5546875 C0.39257812 1.71164063 0.19921875 0.86859375 0 0 Z " fill="#FCE6D7" transform="translate(296,72)"/>
<path d="M0 0 C0.33 0 0.66 0 1 0 C1.33 3.96 1.66 7.92 2 12 C0.68 12 -0.64 12 -2 12 C-1.85962479 10.18706911 -1.71255111 8.3746557 -1.5625 6.5625 C-1.48128906 5.55316406 -1.40007812 4.54382813 -1.31640625 3.50390625 C-1 1 -1 1 0 0 Z " fill="#C85C2E" transform="translate(324,77)"/>
<path d="M0 0 C2.31242092 2.16323247 4.0156396 4.37647804 5.6875 7.0625 C6.12449219 7.75472656 6.56148438 8.44695313 7.01171875 9.16015625 C8 11 8 11 8 13 C7.34 13 6.68 13 6 13 C5.71125 12.360625 5.4225 11.72125 5.125 11.0625 C4.17176549 8.84793921 4.17176549 8.84793921 2 8 C0.6250851 5.09740189 0 3.23861295 0 0 Z " fill="#FDE7DA" transform="translate(283,51)"/>
<path d="M0 0 C0.66 0 1.32 0 2 0 C2.33 1.32 2.66 2.64 3 4 C4.98 4 6.96 4 9 4 C7.515 6.475 7.515 6.475 6 9 C2.91910327 6.22719294 1.31224548 3.93673644 0 0 Z " fill="#CB6339" transform="translate(263,87)"/>
<path d="M0 0 C1.32 0.33 2.64 0.66 4 1 C3.34 3.31 2.68 5.62 2 8 C0.62437146 6.71034824 -0.70766393 5.37310707 -2 4 C-2 3.34 -2 2.68 -2 2 C-1.34 2 -0.68 2 0 2 C0 1.34 0 0.68 0 0 Z " fill="#D35F2E" transform="translate(258,73)"/>
<path d="M0 0 C0.99 0.33 1.98 0.66 3 1 C3.33 1.99 3.66 2.98 4 4 C4.66 4.33 5.32 4.66 6 5 C6.40729228 7.32156597 6.74438677 9.6568787 7 12 C0 3.55172414 0 3.55172414 0 0 Z " fill="#CC683A" transform="translate(239,47)"/>
<path d="M0 0 C0.66 1.32 1.32 2.64 2 4 C1.01 4.33 0.02 4.66 -1 5 C-1.73323796 7.01508358 -1.73323796 7.01508358 -2 9 C-3.32 9.33 -4.64 9.66 -6 10 C-5.18957164 8.51969728 -4.37659652 7.04078858 -3.5625 5.5625 C-2.88380859 4.32693359 -2.88380859 4.32693359 -2.19140625 3.06640625 C-1 1 -1 1 0 0 Z " fill="#CE683C" transform="translate(297,91)"/>
<path d="M0 0 C1.80125336 2.70188004 3.00243753 4.93057703 4 8 C3.67 8.99 3.34 9.98 3 11 C2.16121545 9.71186658 1.32913217 8.41936744 0.5 7.125 C0.0359375 6.40570313 -0.428125 5.68640625 -0.90625 4.9453125 C-2 3 -2 3 -2 1 C-1.34 0.67 -0.68 0.34 0 0 Z " fill="#D06539" transform="translate(252,64)"/>
<path d="M0 0 C2.23960447 2.87949147 4.29864224 5.76742026 6 9 C5.67 9.66 5.34 10.32 5 11 C1.62668646 8.75112431 1.1641821 7.7612037 0 4 C0 2.68 0 1.36 0 0 Z " fill="#E3C2B5" transform="translate(259,81)"/>
<path d="M0 0 C0.33 1.32 0.66 2.64 1 4 C1.66 4 2.32 4 3 4 C3.33 6.31 3.66 8.62 4 11 C1.25722422 7.80009492 -0.6302836 4.99500618 -2 1 C-1.34 0.67 -0.68 0.34 0 0 Z " fill="#D16535" transform="translate(296,66)"/>
<path d="M0 0 C0.99 0 1.98 0 3 0 C3.99 2.31 4.98 4.62 6 7 C5.34 7.66 4.68 8.32 4 9 C0 2.25 0 2.25 0 0 Z " fill="#D16535" transform="translate(282,47)"/>
<path d="M0 0 C2.9555377 2.75170751 5.11563315 5.41970299 7 9 C7 9.66 7 10.32 7 11 C4 10 4 10 2.83203125 8.22265625 C2.49558594 7.50980469 2.15914062 6.79695313 1.8125 6.0625 C1.46832031 5.35222656 1.12414062 4.64195313 0.76953125 3.91015625 C0 2 0 2 0 0 Z " fill="#CB6739" transform="translate(249,105)"/>
<path d="M0 0 C0.99 0.33 1.98 0.66 3 1 C2.50769231 6.53846154 2.50769231 6.53846154 -0.0625 8.875 C-1.0215625 9.431875 -1.0215625 9.431875 -2 10 C-1.67 9.278125 -1.34 8.55625 -1 7.8125 C0.00603529 4.98302573 0.16977402 2.97104534 0 0 Z " fill="#FBE6D5" transform="translate(233,79)"/>
<path d="M0 0 C0.66 0 1.32 0 2 0 C2 0.66 2 1.32 2 2 C3.32 2.33 4.64 2.66 6 3 C3.36 3.33 0.72 3.66 -2 4 C-1.34 2.68 -0.68 1.36 0 0 Z " fill="#CD582F" transform="translate(324,129)"/>
<path d="M0 0 C0.99 0 1.98 0 3 0 C1.6302836 3.99500618 -0.25722422 6.80009492 -3 10 C-2.39009109 6.44219804 -1.4216319 3.3171411 0 0 Z " fill="#FCE6D5" transform="translate(293,92)"/>
<path d="M0 0 C0.99 0.33 1.98 0.66 3 1 C3.33 2.65 3.66 4.3 4 6 C4.66 6 5.32 6 6 6 C5.67 7.32 5.34 8.64 5 10 C4.16121545 8.71186658 3.32913217 7.41936744 2.5 6.125 C2.0359375 5.40570313 1.571875 4.68640625 1.09375 3.9453125 C0 2 0 2 0 0 Z " fill="#FDE5D6" transform="translate(218,54)"/>
<path d="M0 0 C2.99529289 0.99843096 4.15840327 1.51384442 6 4 C5.6875 6.1875 5.6875 6.1875 5 8 C2.74754119 5.31158141 1.11786042 3.35358125 0 0 Z " fill="#CC6636" transform="translate(289,59)"/>
<path d="M0 0 C0.66 0.33 1.32 0.66 2 1 C0.02 3.97 0.02 3.97 -2 7 C-2.66 5.68 -3.32 4.36 -4 3 C-2.68 2.01 -1.36 1.02 0 0 Z " fill="#FCE5DA" transform="translate(244,104)"/>
<path d="M0 0 C-1.98 1.32 -3.96 2.64 -6 4 C-6.33 2.68 -6.66 1.36 -7 0 C-3.98968256 -0.93423645 -3.13349732 -1.04449911 0 0 Z " fill="#D55A22" transform="translate(182,100)"/>
<path d="M0 0 C0.99 0.33 1.98 0.66 3 1 C1.68 3.31 0.36 5.62 -1 8 C-2.2077558 4.37673261 -1.54311128 3.35853631 0 0 Z " fill="#CF6638" transform="translate(230,84)"/>
<path d="M0 0 C3.67230705 3.07999946 4.56802365 5.2482602 5 10 C1.32769295 6.92000054 0.43197635 4.7517398 0 0 Z " fill="#CF6940" transform="translate(229,74)"/>
</svg>
