<?xml version="1.0" encoding="UTF-8"?>
<svg version="1.1" xmlns="http://www.w3.org/2000/svg" width="866" height="288">
<path d="M0 0 C1.77857876 0.01506552 3.55717148 0.02855513 5.33577347 0.04056835 C9.0395095 0.06726272 12.74305647 0.10161163 16.44667053 0.14175034 C21.69117645 0.19590637 26.93529333 0.21711845 32.18005371 0.22451782 C33.01161728 0.22571296 33.84318084 0.2269081 34.6999433 0.22813946 C36.38370407 0.2304195 38.06746496 0.23261156 39.75122595 0.23471606 C44.07576353 0.24160737 48.4002744 0.25566845 52.72479248 0.27009583 C54.03852793 0.27446503 54.03852793 0.27446503 55.37880349 0.2789225 C67.81774514 0.32143683 80.25665096 0.37407741 92.69553757 0.43029499 C102.77129893 0.47554207 112.84702055 0.51500183 122.92285156 0.54101562 C131.83453239 0.56403097 140.74610338 0.59740801 149.65769696 0.64328164 C154.33896035 0.66704572 159.02011672 0.68588738 163.7014389 0.69219398 C168.07851153 0.6982643 172.45530328 0.71833338 176.83227158 0.74885559 C178.42690197 0.75758407 180.02156909 0.76136928 181.61622238 0.75958824 C205.78278577 0.74112606 205.78278577 0.74112606 214.28417969 9.10083008 C220.10573302 16.32386847 222.11863068 23.86169547 222.06933594 33.03051758 C222.06611328 34.09399414 222.06289063 35.1574707 222.05957031 36.25317383 C222.05119141 37.34758789 222.0428125 38.44200195 222.03417969 39.56958008 C222.02966797 40.68719727 222.02515625 41.80481445 222.02050781 42.95629883 C222.00877213 45.70244812 221.99235332 48.44848594 221.97167969 51.19458008 C220.92109375 51.48075195 219.87050781 51.76692383 218.78808594 52.06176758 C209.94091718 54.68784633 203.62317106 58.01381028 198.97167969 66.19458008 C196.15883785 72.07597665 195.80848567 78.66345537 197.84667969 84.85083008 C200.44728052 90.53108979 203.48263824 95.07018566 208.97167969 98.19458008 C211.03445537 98.81590612 213.11958857 99.36615696 215.21777344 99.85473633 C216.29599365 100.11005127 217.37421387 100.36536621 218.48510742 100.62841797 C219.30567627 100.81525146 220.12624512 101.00208496 220.97167969 101.19458008 C221.07192522 105.12304808 221.14378213 109.05100242 221.19140625 112.98046875 C221.22098103 114.96030916 221.27185501 116.93979509 221.32324219 118.91918945 C221.41154668 127.63925849 220.99092524 136.21703406 215.29443359 143.27172852 C206.90166146 151.28788841 197.44918776 152.78955558 186.23852539 152.66455078 C184.99703484 152.66670436 183.75554428 152.66885794 182.4764328 152.67107677 C179.07821259 152.67291206 175.68096808 152.65694937 172.28289247 152.63292313 C168.65888262 152.61160468 165.03487448 152.61336816 161.41081238 152.61218262 C154.4374223 152.60615149 147.46428703 152.57859327 140.49099416 152.54245484 C134.89032825 152.51372764 129.2896816 152.49251715 123.68896484 152.47665405 C122.89647956 152.47439361 122.10399429 152.47213317 121.2874943 152.46980423 C119.68655223 152.46525376 118.08561014 152.46071265 116.48466802 152.45618093 C102.31255919 152.41506392 88.14065788 152.35035453 73.96871114 152.27184236 C63.18173471 152.21227103 52.39492208 152.17347049 41.60778713 152.15345478 C33.19678429 152.13681757 24.78614674 152.09533478 16.37533569 152.03695679 C13.13360809 152.01499899 9.89209842 152.00321215 6.65029907 152.00039673 C2.93812694 151.99629074 -0.77309193 151.9685913 -4.48496056 151.92146301 C-6.38952583 151.90267237 -8.29428061 151.90735991 -10.19892883 151.91345215 C-18.77653455 151.76508111 -27.26284376 150.18328991 -34.03070068 144.51858521 C-35.62505901 142.84290726 -36.82320451 141.16716171 -38.02832031 139.19458008 C-38.39473633 138.60459229 -38.76115234 138.01460449 -39.13867188 137.40673828 C-42.94807626 130.10838888 -42.47872398 122.63215681 -42.27832031 114.63208008 C-42.25821529 113.22780881 -42.23997162 111.82350959 -42.22363281 110.41918945 C-42.17677471 107.01026227 -42.11117536 103.60279051 -42.02832031 100.19458008 C-41.21427734 100.01499756 -40.40023438 99.83541504 -39.56152344 99.65039062 C-38.48837891 99.40071533 -37.41523438 99.15104004 -36.30957031 98.89379883 C-34.71725586 98.53161255 -34.71725586 98.53161255 -33.09277344 98.16210938 C-26.99681144 96.23745216 -22.80919782 91.9579657 -19.52832031 86.56958008 C-16.86004711 80.44684604 -16.96678858 73.21513151 -18.65332031 66.82739258 C-21.28803968 60.78165259 -26.33256616 56.58692093 -31.77832031 53.06176758 C-35.14019961 51.76604327 -38.44715711 51.5526964 -42.02832031 51.19458008 C-42.11645839 47.06971797 -42.16909109 42.94510269 -42.21582031 38.81958008 C-42.24095703 37.66329102 -42.26609375 36.50700195 -42.29199219 35.31567383 C-42.38051128 24.87042057 -40.76836923 15.49446888 -34.02832031 7.19458008 C-24.39042764 -1.09849036 -11.93242486 -0.17838412 0 0 Z " fill="#DB561D" transform="translate(368.0283203125,68.805419921875)"/>
<path d="M0 0 C9.00879706 8.30149481 9.00879706 8.30149481 9.890625 14.7421875 C5.25673288 18.67397475 0.04697281 22.75717185 -6.109375 23.7421875 C-6.191875 22.9584375 -6.274375 22.1746875 -6.359375 21.3671875 C-6.80683112 18.64159781 -6.80683112 18.64159781 -8.875 17.73828125 C-9.61234375 17.40957031 -10.3496875 17.08085938 -11.109375 16.7421875 C-13.37666187 15.46085108 -15.63494482 14.16493231 -17.890625 12.86328125 C-23.0171728 10.27293051 -28.46845176 10.00991358 -34.109375 10.7421875 C-38.39303673 12.30702303 -42.5231241 14.14847189 -45.76953125 17.41015625 C-47.109375 18.7421875 -47.109375 18.7421875 -49.109375 18.7421875 C-49.78499248 20.4052459 -50.44870781 22.07313355 -51.109375 23.7421875 C-51.625 24.8971875 -52.140625 26.0521875 -52.671875 27.2421875 C-56.18171509 36.71517427 -56.1149879 47.18896593 -51.91796875 56.33984375 C-47.7052586 64.13393146 -42.38089268 67.87323767 -34.109375 70.7421875 C-23.93050945 72.14565953 -15.11163163 69.46935911 -6.921875 63.3671875 C-4.70062513 60.15020493 -4.55431667 57.58037122 -4.109375 53.7421875 C-6.04103516 53.75958984 -6.04103516 53.75958984 -8.01171875 53.77734375 C-9.69010272 53.7867202 -11.36848826 53.79582055 -13.046875 53.8046875 C-14.32208008 53.81725586 -14.32208008 53.81725586 -15.62304688 53.83007812 C-16.43193359 53.83330078 -17.24082031 53.83652344 -18.07421875 53.83984375 C-18.8230835 53.84508057 -19.57194824 53.85031738 -20.34350586 53.85571289 C-22.109375 53.7421875 -22.109375 53.7421875 -23.109375 52.7421875 C-23.18196446 50.55579297 -23.19311283 48.36718361 -23.171875 46.1796875 C-23.16285156 44.98214844 -23.15382812 43.78460938 -23.14453125 42.55078125 C-23.13292969 41.62394531 -23.12132812 40.69710937 -23.109375 39.7421875 C-19.55509923 38.55742891 -16.33075422 38.59873032 -12.6328125 38.609375 C-11.54403305 38.60793991 -11.54403305 38.60793991 -10.43325806 38.60647583 C-8.90179355 38.60579616 -7.37032614 38.60763561 -5.83886719 38.61181641 C-3.48626299 38.61718319 -1.13384838 38.61185634 1.21875 38.60546875 C2.70572959 38.60612927 4.19270906 38.60740988 5.6796875 38.609375 C6.7405809 38.60633865 6.7405809 38.60633865 7.82290649 38.60324097 C12.77566257 38.62722507 12.77566257 38.62722507 13.890625 39.7421875 C13.98389216 41.30765798 14.00808082 42.87731522 14.00415039 44.44555664 C14.00403709 45.94699974 14.00403709 45.94699974 14.00392151 47.47877502 C13.99876022 48.5673027 13.99359894 49.65583038 13.98828125 50.77734375 C13.9868663 51.88573105 13.98545135 52.99411835 13.98399353 54.13609314 C13.97837533 57.69231819 13.96581975 61.24848133 13.953125 64.8046875 C13.94811234 67.20898347 13.94354903 69.61328042 13.93945312 72.01757812 C13.92839999 77.92580527 13.91112316 83.83398587 13.890625 89.7421875 C8.280625 89.7421875 2.670625 89.7421875 -3.109375 89.7421875 C-4.099375 85.7821875 -4.099375 85.7821875 -5.109375 81.7421875 C-6.0684375 82.6084375 -6.0684375 82.6084375 -7.046875 83.4921875 C-15.62222996 89.79244828 -24.63277717 91.50036234 -35.109375 90.7421875 C-49.32373753 88.26248415 -59.5355187 80.5695564 -68.03515625 69.15625 C-75.81960092 56.90975393 -77.93187465 42.30057134 -74.796875 28.21484375 C-71.33819108 15.77537262 -62.87217242 3.00870257 -51.609375 -3.6328125 C-36.00270942 -10.37912013 -13.6108041 -11.12102286 0 0 Z " fill="#EDEDEC" transform="translate(108.109375,101.2578125)"/>
<path d="M0 0 C11.68626485 -0.54003072 22.71797295 2.80679394 31.73828125 10.21484375 C42.66281574 20.52583184 48.50068654 31.8718752 49.14306641 47.0012207 C49.35515538 60.13649205 46.47216228 72.07922873 37.73828125 82.21484375 C37.15304687 82.92125 36.5678125 83.62765625 35.96484375 84.35546875 C29.56934588 91.4255972 20.05746044 97.62046139 10.36328125 98.40771484 C-12.76403324 99.11753755 -12.76403324 99.11753755 -22.26171875 93.21484375 C-22.99003906 92.79203125 -23.71835937 92.36921875 -24.46875 91.93359375 C-33.92156034 85.71606649 -42.11995695 73.16294059 -44.73925781 62.21972656 C-47.5740725 47.37622701 -45.66624456 34.54492647 -37.51171875 21.71484375 C-36.44904508 20.20013725 -35.36490826 18.70030126 -34.26171875 17.21484375 C-33.68679688 16.43753906 -33.111875 15.66023438 -32.51953125 14.859375 C-25.37532493 6.01063813 -16.23447138 1.86383405 -5.0546875 0.4609375 C-3.36933034 0.3124375 -1.68430484 0.15999441 0 0 Z M-20.26171875 29.21484375 C-26.19208039 39.8068827 -27.47873891 49.56819857 -24.26171875 61.21484375 C-20.89027571 69.96277306 -16.04550565 75.03669146 -7.5546875 79.0390625 C-0.6612598 81.50041688 5.90095596 81.2529771 12.67578125 78.52734375 C20.85554627 74.28270893 24.75675817 67.21583058 28.05078125 58.90234375 C30.01513858 48.36624536 28.89082544 39.15519149 23.34765625 29.890625 C18.7712741 23.37530199 13.61737534 19.84500115 5.73828125 18.21484375 C-4.34875241 17.22267651 -13.85787922 21.27408273 -20.26171875 29.21484375 Z " fill="#EEEEEE" transform="translate(769.26171875,93.78515625)"/>
<path d="M0 0 C12.44223203 -0.56236077 23.55512524 2.7353819 32.7265625 11.05859375 C35.41576822 13.6598091 37.61652491 16.09470924 39.69921875 19.21875 C39.69140625 21.63671875 39.69140625 21.63671875 38.69921875 24.21875 C36.08203125 26.45703125 36.08203125 26.45703125 32.82421875 28.53125 C31.75429688 29.22863281 30.684375 29.92601563 29.58203125 30.64453125 C26.69921875 32.21875 26.69921875 32.21875 23.69921875 32.21875 C22.76203168 30.77949843 21.8287299 29.33745994 20.921875 27.87890625 C17.21360302 22.84371267 11.71762954 20.34082659 5.69921875 19.21875 C-3.28476615 18.26144013 -9.01985096 20.50522455 -16.05078125 25.96875 C-23.10603184 32.4454379 -24.76202203 40.90591209 -25.30078125 50.21875 C-24.83325915 59.31744935 -21.71629815 67.38309746 -14.92578125 73.59375 C-7.77071453 79.10943312 -1.14117412 80.0685608 7.69921875 79.21875 C14.8975481 77.73200383 21.63257697 73.31871267 25.69921875 67.21875 C25.69921875 65.89875 25.69921875 64.57875 25.69921875 63.21875 C19.75921875 62.88875 13.81921875 62.55875 7.69921875 62.21875 C6.39461961 59.60955172 6.56655935 57.62932385 6.57421875 54.71875 C6.57164062 53.7390625 6.5690625 52.759375 6.56640625 51.75 C6.69921875 49.21875 6.69921875 49.21875 7.69921875 47.21875 C11.7193913 47.19389636 15.73953363 47.17581762 19.75976562 47.16381836 C21.12533345 47.15881214 22.49089599 47.15200518 23.85644531 47.14331055 C25.82744993 47.13108169 27.79849485 47.12602134 29.76953125 47.12109375 C31.54481201 47.11323853 31.54481201 47.11323853 33.35595703 47.10522461 C36.69921875 47.21875 36.69921875 47.21875 42.69921875 48.21875 C42.69921875 64.71875 42.69921875 81.21875 42.69921875 98.21875 C37.41921875 98.21875 32.13921875 98.21875 26.69921875 98.21875 C25.70921875 94.25875 25.70921875 94.25875 24.69921875 90.21875 C24.11914062 90.62867188 23.5390625 91.03859375 22.94140625 91.4609375 C22.16023437 91.99976563 21.3790625 92.53859375 20.57421875 93.09375 C19.80851563 93.62742187 19.0428125 94.16109375 18.25390625 94.7109375 C9.08174223 100.12447773 -3.81462335 99.76933631 -13.9609375 97.34375 C-22.38114069 94.0408574 -30.12349792 88.71688448 -35.30078125 81.21875 C-36.00654297 80.28482422 -36.00654297 80.28482422 -36.7265625 79.33203125 C-45.05046345 67.82728477 -47.27268011 54.94927109 -45.61328125 41.03125 C-44.64208172 35.20405281 -43.20709898 30.35233927 -40.30078125 25.21875 C-39.54087891 23.85943359 -39.54087891 23.85943359 -38.765625 22.47265625 C-33.03259697 12.84795999 -25.96396337 6.06350299 -15.30078125 2.21875 C-10.22850871 1.03398561 -5.17569318 0.49208628 0 0 Z " fill="#F0F0F0" transform="translate(671.30078125,93.78125)"/>
<path d="M0 0 C13.53 0 27.06 0 41 0 C43.83364078 5.66728156 46.55709268 11.18304814 48.79296875 17.09765625 C50.87598395 22.54624186 53.30783551 27.73728515 55.9375 32.9375 C61.26915138 43.51043578 61.26915138 43.51043578 63 47.125 C63.5878125 48.33542969 63.5878125 48.33542969 64.1875 49.5703125 C65.6198739 53.85366137 65.37873146 57.05299322 63.70239258 61.24462891 C63.10579834 62.39366699 62.5092041 63.54270508 61.89453125 64.7265625 C61.57344894 65.35549408 61.25236664 65.98442566 60.92155457 66.63241577 C59.89649134 68.63599562 58.85555917 70.63073855 57.8125 72.625 C56.45850964 75.23895808 55.11169656 77.85651442 53.76953125 80.4765625 C53.44026642 81.1177301 53.11100159 81.75889771 52.77175903 82.41949463 C50.360919 87.16339835 48.24454841 91.97998195 46.30737305 96.93896484 C44.40839275 101.38516745 42.16216761 105.67566479 40 110 C26.47 110 12.94 110 -1 110 C0.11976147 104.40119265 0.11976147 104.40119265 1.7265625 101.390625 C3.40742081 98.15622317 5.0206087 94.90152561 6.5859375 91.609375 C7.26571655 90.18214111 7.26571655 90.18214111 7.95922852 88.72607422 C8.42643311 87.74396973 8.8936377 86.76186523 9.375 85.75 C12.8007681 78.56129759 16.24868842 71.39276861 19.87890625 64.3046875 C20.24886719 63.54414063 20.61882812 62.78359375 21 62 C21.60134766 60.82824219 21.60134766 60.82824219 22.21484375 59.6328125 C24.23194827 52.86898939 20.77408677 46.76543409 17.8515625 40.8125 C17.43836761 39.95116455 17.02517273 39.0898291 16.59945679 38.20239258 C15.28356438 35.46385258 13.95475492 32.73183154 12.625 30 C11.30522686 27.26687331 9.9881366 24.53247082 8.67196655 21.79760742 C7.85438293 20.10114968 7.03423145 18.40592624 6.21109009 16.7121582 C0 3.89735629 0 3.89735629 0 0 Z " fill="#FDFBF9" transform="translate(396,90)"/>
<path d="M0 0 C13.53 0 27.06 0 41 0 C45.02726465 8.62985282 49.03601402 17.25289142 52.9375 25.9375 C56.31095839 33.44349383 59.81268256 40.84955501 63.75170898 48.07788086 C66.0307448 52.41926497 66.0307448 52.41926497 65.89453125 54.9921875 C65.59933594 55.65476563 65.30414062 56.31734375 65 57 C64.59007812 58.02609375 64.18015625 59.0521875 63.7578125 60.109375 C61.6472335 64.91240968 59.24515955 69.57142524 56.875 74.25 C53.13997913 81.67621815 49.45080112 89.12066769 45.875 96.625 C45.49714355 97.41165039 45.11928711 98.19830078 44.72998047 99.00878906 C44.38338379 99.7406543 44.03678711 100.47251953 43.6796875 101.2265625 C43.37788574 101.86158691 43.07608398 102.49661133 42.76513672 103.15087891 C41.81815132 105.3114018 41.81815132 105.3114018 41 109 C27.47 109 13.94 109 0 109 C1.12571745 102.24569532 1.12571745 102.24569532 2.671875 99.01171875 C3.00413086 98.30990479 3.33638672 97.60809082 3.67871094 96.88500977 C4.03223633 96.15983154 4.38576172 95.43465332 4.75 94.6875 C5.11125977 93.93202881 5.47251953 93.17655762 5.84472656 92.39819336 C8.0432316 87.84056865 10.39672651 83.41268496 12.921875 79.02734375 C14.53621184 75.9916886 15.7350255 72.82614651 16.94921875 69.61328125 C18.45179153 65.87639949 20.29421756 62.31410742 22.14453125 58.73828125 C23.65546888 53.90190099 22.50331834 50.14798855 20.51171875 45.60546875 C19.90972656 44.47753906 19.30773437 43.34960938 18.6875 42.1875 C16.60936144 38.27014119 14.73670518 34.4338237 13.12890625 30.30078125 C10.39011613 23.30002716 7.01723317 16.61091155 3.71484375 9.86328125 C3.23660156 8.87714844 2.75835937 7.89101562 2.265625 6.875 C1.83024414 5.98554687 1.39486328 5.09609375 0.94628906 4.1796875 C0 2 0 2 0 0 Z " fill="#FEFCFA" transform="translate(454,91)"/>
<path d="M0 0 C22.11 0 44.22 0 67 0 C67 5.61 67 11.22 67 17 C66 18 66 18 64.13340759 18.12025452 C63.31844315 18.11803391 62.5034787 18.11581329 61.66381836 18.11352539 C60.28249977 18.11341209 60.28249977 18.11341209 58.87327576 18.11329651 C57.87224319 18.10813522 56.87121063 18.10297394 55.83984375 18.09765625 C54.82024063 18.0962413 53.80063751 18.09482635 52.75013733 18.09336853 C49.47922893 18.08775097 46.20838787 18.0751955 42.9375 18.0625 C40.72591244 18.05748726 38.51432382 18.05292396 36.30273438 18.04882812 C30.86844248 18.0386248 25.43429702 18.01905285 20 18 C20 24.93 20 31.86 20 39 C33.53 39 47.06 39 61 39 C61 44.28 61 49.56 61 55 C47.47 55 33.94 55 20 55 C20 62.92 20 70.84 20 79 C35.84 79 51.68 79 68 79 C68 84.94 68 90.88 68 97 C45.56 97 23.12 97 0 97 C0 64.99 0 32.98 0 0 Z " fill="#EFEFEF" transform="translate(136,94)"/>
<path d="M0 0 C26.73 0 53.46 0 81 0 C81.495 8.415 81.495 8.415 82 17 C81.505 17.495 81.505 17.495 81 18 C71.1 18 61.2 18 51 18 C51 44.07 51 70.14 51 97 C44.4 97 37.8 97 31 97 C31 70.93 31 44.86 31 18 C21.1 18 11.2 18 1 18 C0.67 17.67 0.34 17.34 0 17 C0 11.39 0 5.78 0 0 Z " fill="#F5F5F5" transform="translate(209,94)"/>
<path d="M0 0 C2.99159167 3.65450119 4.36797047 7.35005041 5.9375 11.7578125 C6.91324986 14.31365409 6.91324986 14.31365409 10 16 C8.02842601 24.4988238 3.98903142 32.2409829 -0.00610352 39.93847656 C-2.72167637 45.22954113 -4.76015398 50.40038495 -7 56 C6.2 56 19.4 56 33 56 C33 56.33 33 56.66 33 57 C19.47 57 5.94 57 -8 57 C-8.99 54.03 -9.98 51.06 -11 48 C-11.99 47.67 -12.98 47.34 -14 47 C-14.33 45.02 -14.66 43.04 -15 41 C-16.32 41.66 -17.64 42.32 -19 43 C-16.50901799 34.37663861 -12.45474976 26.63633954 -8.375 18.6875 C-7.33260578 16.65068483 -6.29211941 14.61297702 -5.25650024 12.57270813 C-4.61623554 11.31180624 -3.9720386 10.0528909 -3.32333374 8.79631042 C-1.8522488 5.90393136 -0.59674616 3.20220894 0 0 Z " fill="#AFA6A2" transform="translate(461,144)"/>
<path d="M0 0 C0.76401233 0.00251113 1.52802466 0.00502226 2.31518888 0.00760949 C4.83289456 0.01805887 7.35025442 0.04267732 9.86785889 0.06721497 C11.66011669 0.07717043 13.45238036 0.08611637 15.24464798 0.09411144 C18.98104371 0.11203819 22.71735096 0.13526207 26.45368958 0.16257858 C31.71817593 0.19965232 36.98252945 0.21658184 42.24713135 0.22532654 C43.92661921 0.22824125 45.60610708 0.23115727 47.28559494 0.23407459 C48.11851861 0.23550988 48.95144229 0.23694516 49.80960608 0.23842394 C67.4567683 0.27357382 85.10389081 0.35525427 102.75089645 0.43500996 C112.82665782 0.48025704 122.90237944 0.51971679 132.97821045 0.54573059 C141.88989128 0.56874594 150.80146226 0.60212298 159.71305585 0.6479966 C164.39431923 0.67176069 169.07547561 0.69060234 173.75679779 0.69690895 C178.13387041 0.70297926 182.51066217 0.72304835 186.88763046 0.75357056 C188.48226086 0.76229903 190.07692798 0.76608424 191.67158127 0.76430321 C214.41891799 0.74692526 214.41891799 0.74692526 222.27703857 7.38679504 C223.63828857 8.77898254 223.63828857 8.77898254 225.02703857 10.19929504 C223.18719482 10.81257629 223.18719482 10.81257629 221.02703857 11.19929504 C218.46453857 9.38679504 218.46453857 9.38679504 216.02703857 7.19929504 C212.57645172 4.8989038 210.08608355 4.72546754 206.02703857 4.19929504 C205.69703857 3.86929504 205.36703857 3.53929504 205.02703857 3.19929504 C202.55768142 3.0869681 200.11560047 3.03987894 197.6451416 3.03434753 C196.47164622 3.02588222 196.47164622 3.02588222 195.27444386 3.01724589 C192.63176044 2.99943452 189.98909565 2.988798 187.34637451 2.97810364 C185.45913956 2.96689379 183.57190707 2.95526181 181.68467712 2.9432373 C176.53681429 2.91179769 171.38893818 2.88672439 166.24103451 2.86304045 C161.93587794 2.84263467 157.63074103 2.81908311 153.32560086 2.79550326 C143.14781181 2.73977679 132.97000622 2.68909411 122.79217529 2.64167786 C112.33326228 2.59288198 101.87441013 2.53655914 91.41555762 2.47625673 C82.41827521 2.42460651 73.42097707 2.3773418 64.42365289 2.33356917 C59.05908876 2.3074528 53.69454402 2.27985094 48.33000946 2.24819565 C43.26411746 2.21852875 38.19822655 2.19442673 33.13228798 2.17429543 C31.2898827 2.16611312 29.44748425 2.15612086 27.60510063 2.14400673 C17.9556842 2.08176813 8.33845759 2.1962875 -1.30224609 2.6391449 C-2.1670872 2.67822539 -3.03192832 2.71730588 -3.92297673 2.75757062 C-8.66341703 2.99913163 -13.28602189 3.44663662 -17.97296143 4.19929504 C-12.34294415 0.44595019 -6.61885743 -0.09328911 0 0 Z " fill="#AF5229" transform="translate(357.97296142578125,68.80070495605469)"/>
<path d="M0 0 C26.73 0 53.46 0 81 0 C81.495 8.415 81.495 8.415 82 17 C81 18 81 18 77.83984375 18.09765625 C76.55207031 18.08605469 75.26429688 18.07445313 73.9375 18.0625 C72.00197266 18.04896484 72.00197266 18.04896484 70.02734375 18.03515625 C69.02832031 18.02355469 68.02929688 18.01195313 67 18 C67 17.67 67 17.34 67 17 C71.29 16.67 75.58 16.34 80 16 C80 11.05 80 6.1 80 1 C53.93 1 27.86 1 1 1 C1 6.28 1 11.56 1 17 C0.67 17 0.34 17 0 17 C0 11.39 0 5.78 0 0 Z " fill="#CACAC9" transform="translate(209,94)"/>
<path d="M0 0 C0.66 0.33 1.32 0.66 2 1 C1 4 1 4 -1 5 C-1.73075648 7.3140622 -2.40138258 9.64828869 -3 12 C-4.32 12 -5.64 12 -7 12 C-10.31685899 23.24394335 -10.70099756 34.35212037 -11 46 C-9.68 46.33 -8.36 46.66 -7 47 C-8.65 47 -10.3 47 -12 47 C-12.08813808 42.87513789 -12.14077078 38.75052261 -12.1875 34.625 C-12.21263672 33.46871094 -12.23777344 32.31242187 -12.26367188 31.12109375 C-12.35335225 20.53880921 -10.63489556 11.48696764 -4 3 C-1.6875 1 -1.6875 1 0 0 Z " fill="#9B401E" transform="translate(338,73)"/>
<path d="M0 0 C5.94 0.99 5.94 0.99 12 2 C12.06939297 5.96567985 12.12896219 9.92978564 12.16479492 13.89575195 C12.18705458 15.89744576 12.22520146 17.89894275 12.26367188 19.90039062 C12.31957661 27.29844997 11.86354817 33.15303837 9 40 C8.67 40 8.34 40 8 40 C8 38.02 8 36.04 8 34 C8.66 34 9.32 34 10 34 C10 24.43 10 14.86 10 5 C8.02 5 6.04 5 4 5 C4 4.34 4 3.68 4 3 C3.01 3 2.02 3 1 3 C0.67 2.01 0.34 1.02 0 0 Z " fill="#B4542D" transform="translate(577,168)"/>
<path d="M0 0 C6.04652274 -0.07479523 12.09276937 -0.12890414 18.13964844 -0.16479492 C20.19177957 -0.17977516 22.24387927 -0.20016646 24.29589844 -0.22631836 C52.14956802 -0.57211611 52.14956802 -0.57211611 60.25 6.1875 C61.61125 7.5796875 61.61125 7.5796875 63 9 C61.16015625 9.61328125 61.16015625 9.61328125 59 10 C56.4375 8.1875 56.4375 8.1875 54 6 C50.54941314 3.69960876 48.05904498 3.5261725 44 3 C43.505 2.505 43.505 2.505 43 2 C41.65016252 1.87814857 40.29425299 1.82233169 38.93920898 1.79467773 C38.07839218 1.77473251 37.21757538 1.75478729 36.33067322 1.73423767 C35.39526199 1.71752518 34.45985077 1.70081268 33.49609375 1.68359375 C32.06657127 1.6524221 32.06657127 1.6524221 30.60816956 1.62062073 C27.5513559 1.55501823 24.49445344 1.49619082 21.4375 1.4375 C19.37043337 1.39432494 17.30337586 1.35071099 15.23632812 1.30664062 C10.15764405 1.19932599 5.0788703 1.09808909 0 1 C0 0.67 0 0.34 0 0 Z " fill="#9E431E" transform="translate(520,70)"/>
<path d="M0 0 C1.82327218 2.0511812 2.92098052 3.42736534 3.30078125 6.1796875 C2.8952242 9.98244325 1.36307439 13.05600882 -0.3125 16.4375 C-0.62123047 17.08009766 -0.92996094 17.72269531 -1.24804688 18.38476562 C-3.12479105 22.27654038 -5.06060952 26.13912111 -7 30 C-8.14271055 26.57186835 -7.82699932 25.69088901 -6.6875 22.375 C-6.29111328 21.18003906 -6.29111328 21.18003906 -5.88671875 19.9609375 C-5 18 -5 18 -3 17 C-0.66316955 11.40447021 0.39315606 6.02839298 0 0 Z " fill="#D57147" transform="translate(417,138)"/>
<path d="M0 0 C0.33 0 0.66 0 1 0 C1.33 6.27 1.66 12.54 2 19 C2.66 19 3.32 19 4 19 C4.33 18.01 4.66 17.02 5 16 C6.32 16.33 7.64 16.66 9 17 C8.814375 17.61875 8.62875 18.2375 8.4375 18.875 C7.76313824 21.04160178 7.76313824 21.04160178 9 23 C4.545 22.01 4.545 22.01 0 21 C0 14.07 0 7.14 0 0 Z " fill="#CF5726" transform="translate(327,98)"/>
<path d="M0 0 C1.32 0.66 2.64 1.32 4 2 C3.54177532 5.46941546 3.10868317 8.67395049 2 12 C1.70901966 17.04936467 1.68963839 22.08614397 3 27 C1.12168614 25.42206802 0.09338616 24.55034641 -0.32470703 22.08642578 C-0.30263184 21.3798584 -0.28055664 20.67329102 -0.2578125 19.9453125 C-0.24363281 19.16542969 -0.22945312 18.38554687 -0.21484375 17.58203125 C-0.18519531 16.77121094 -0.15554688 15.96039063 -0.125 15.125 C0.00867487 10.22620935 0.0753555 5.8108009 -1 1 C-0.67 0.67 -0.34 0.34 0 0 Z " fill="#BB5021" transform="translate(563,129)"/>
<path d="M0 0 C0.33 1.32 0.66 2.64 1 4 C1.66 4 2.32 4 3 4 C3 4.99 3 5.98 3 7 C3.66 7 4.32 7 5 7 C5 8.65 5 10.3 5 12 C5.66 12 6.32 12 7 12 C7 12.99 7 13.98 7 15 C7.66 15 8.32 15 9 15 C9 16.98 9 18.96 9 21 C3.8277285 18.41386425 1.63192145 8.86065761 -0.125 3.6875 C-0.41375 2.800625 -0.7025 1.91375 -1 1 C-0.67 0.67 -0.34 0.34 0 0 Z " fill="#D57A56" transform="translate(446,108)"/>
<path d="M0 0 C2.44814179 3.0296652 4.09452853 6.07549599 5.6875 9.625 C6.12449219 10.58664063 6.56148438 11.54828125 7.01171875 12.5390625 C8 15 8 15 8 17 C7.34 17 6.68 17 6 17 C6 16.01 6 15.02 6 14 C5.01 14 4.02 14 3 14 C0.37625198 8.75250397 -0.09534716 5.91152367 0 0 Z " fill="#D16535" transform="translate(401,104)"/>
<path d="M0 0 C0.33 0 0.66 0 1 0 C1.19384179 2.81219705 1.38036603 5.62454196 1.5625 8.4375 C1.61857422 9.23994141 1.67464844 10.04238281 1.73242188 10.86914062 C1.8616295 12.91062111 1.9351273 14.95546369 2 17 C1 18 1 18 -2.16015625 18.09765625 C-3.44792969 18.08605469 -4.73570312 18.07445313 -6.0625 18.0625 C-7.35285156 18.05347656 -8.64320313 18.04445313 -9.97265625 18.03515625 C-10.97167969 18.02355469 -11.97070312 18.01195313 -13 18 C-13 17.67 -13 17.34 -13 17 C-6.565 16.505 -6.565 16.505 0 16 C0 10.72 0 5.44 0 0 Z " fill="#949494" transform="translate(289,94)"/>
<path d="M0 0 C5.94 0.99 5.94 0.99 12 2 C12 4.31 12 6.62 12 9 C11.34 7.68 10.68 6.36 10 5 C8.02 5 6.04 5 4 5 C4 4.34 4 3.68 4 3 C3.01 3 2.02 3 1 3 C0.67 2.01 0.34 1.02 0 0 Z " fill="#8D3B1E" transform="translate(577,168)"/>
<path d="M0 0 C0.66 0 1.32 0 2 0 C2 3.63 2 7.26 2 11 C6.95 11 11.9 11 17 11 C17 11.33 17 11.66 17 12 C11.72 12 6.44 12 1 12 C-1.125 2.25 -1.125 2.25 0 0 Z " fill="#5F5F5F" transform="translate(697,180)"/>
<path d="M0 0 C5.2295082 6.9726776 5.2295082 6.9726776 4.625 12.3125 C4.41875 13.199375 4.2125 14.08625 4 15 C3.67 15 3.34 15 3 15 C3 13.35 3 11.7 3 10 C2.34 10 1.68 10 1 10 C0.67 6.7 0.34 3.4 0 0 Z " fill="#D47143" transform="translate(473,134)"/>
<path d="M0 0 C2.38327258 3.05316541 3.81165375 5.04472885 4 9 C2.5625 12.3125 2.5625 12.3125 1 15 C-0.44207941 12.11584117 -0.09394887 9.58278472 -0.0625 6.375 C-0.05347656 5.18648437 -0.04445313 3.99796875 -0.03515625 2.7734375 C-0.02355469 1.85820312 -0.01195312 0.94296875 0 0 Z " fill="#F7CFB9" transform="translate(516,138)"/>
<path d="M0 0 C0.66 0 1.32 0 2 0 C2 0.99 2 1.98 2 3 C2.66 3 3.32 3 4 3 C4.53394179 4.4117783 5.05165104 5.82970244 5.5625 7.25 C5.85253906 8.03890625 6.14257812 8.8278125 6.44140625 9.640625 C7.04522837 12.19103452 6.8473932 13.55322229 6 16 C4.9955866 13.7101766 3.99632388 11.4183401 3 9.125 C2.71382813 8.47402344 2.42765625 7.82304688 2.1328125 7.15234375 C0 2.2265625 0 2.2265625 0 0 Z " fill="#D46A3F" transform="translate(499,99)"/>
<path d="M0 0 C2.0625 2.25 2.0625 2.25 4 5 C3.75 7.3125 3.75 7.3125 3 9 C2.67 8.01 2.34 7.02 2 6 C0.35 6 -1.3 6 -3 6 C-3 5.34 -3 4.68 -3 4 C-2.01 4 -1.02 4 0 4 C0 2.68 0 1.36 0 0 Z " fill="#CE6535" transform="translate(449,192)"/>
<path d="M0 0 C1 3 1 3 0.22265625 5.04296875 C-0.16019531 5.75066406 -0.54304688 6.45835937 -0.9375 7.1875 C-1.31777344 7.90292969 -1.69804687 8.61835938 -2.08984375 9.35546875 C-2.54037109 10.16951172 -2.54037109 10.16951172 -3 11 C-3.33 11 -3.66 11 -4 11 C-3.54177532 7.53058454 -3.10868317 4.32604951 -2 1 C-1.34 0.67 -0.68 0.34 0 0 Z " fill="#D1683D" transform="translate(400,184)"/>
<path d="M0 0 C0.99 0 1.98 0 3 0 C3.66 3.3 4.32 6.6 5 10 C4.34 9.67 3.68 9.34 3 9 C2.375 5.9375 2.375 5.9375 2 3 C0.02 3.99 0.02 3.99 -2 5 C-1.34 3.35 -0.68 1.7 0 0 Z " fill="#C37F62" transform="translate(444,182)"/>
<path d="M0 0 C0.66 0.99 1.32 1.98 2 3 C1.67 3.33 1.34 3.66 1 4 C0.6068352 5.67884238 0.25914548 7.36850045 -0.0625 9.0625 C-0.23910156 9.98160156 -0.41570312 10.90070313 -0.59765625 11.84765625 C-0.73042969 12.55792969 -0.86320312 13.26820312 -1 14 C-1.33 14 -1.66 14 -2 14 C-2.3690205 4.58997722 -2.3690205 4.58997722 0 0 Z " fill="#B45027" transform="translate(329,84)"/>
<path d="M0 0 C1 3 1 3 1 5 C-4.53846154 4.38461538 -4.53846154 4.38461538 -6.875 2.4375 C-7.24625 1.963125 -7.6175 1.48875 -8 1 C-7.05125 1.020625 -6.1025 1.04125 -5.125 1.0625 C-2.09333717 1.22551826 -2.09333717 1.22551826 0 0 Z " fill="#D55926" transform="translate(342,210)"/>
<path d="M0 0 C0.33 0.99 0.66 1.98 1 3 C0.01 3.33 -0.98 3.66 -2 4 C-2 4.99 -2 5.98 -2 7 C-3.65 7.33 -5.3 7.66 -7 8 C-6.02133662 6.85373678 -5.04205413 5.70800212 -4.0625 4.5625 C-3.51722656 3.92441406 -2.97195313 3.28632813 -2.41015625 2.62890625 C-1.63204305 1.73008851 -0.84063472 0.84063472 0 0 Z " fill="#983D1C" transform="translate(347,158)"/>
<path d="M0 0 C1.32 0 2.64 0 4 0 C2.25 5.75 2.25 5.75 0 8 C-0.38063221 5.6739143 -0.71269945 3.33944736 -1 1 C-0.67 0.67 -0.34 0.34 0 0 Z " fill="#D25E2B" transform="translate(405,168)"/>
<path d="M0 0 C1.0326802 2.78823655 1.04509293 3.8677274 0.0625 6.75 C-0.288125 7.4925 -0.63875 8.235 -1 9 C-2.42944945 6.64561267 -3.08661261 5.51967567 -2.625 2.75 C-2.41875 2.1725 -2.2125 1.595 -2 1 C-1.67 1.33 -1.34 1.66 -1 2 C-0.67 1.34 -0.34 0.68 0 0 Z " fill="#D7602C" transform="translate(475,147)"/>
<path d="M0 0 C3.67230705 3.07999946 4.56802365 5.2482602 5 10 C2.66063182 7.87330165 1.19346152 5.93775144 0 3 C0 2.01 0 1.02 0 0 Z " fill="#B8988C" transform="translate(448,187)"/>
</svg>
