<svg xmlns="http://www.w3.org/2000/svg" xmlns:xlink="http://www.w3.org/1999/xlink" width="700" zoomAndPan="magnify" viewBox="0 0 525 374.999991" height="500" preserveAspectRatio="xMidYMid meet" version="1.0"><defs><clipPath id="e48016b70c"><path d="M 51 188 L 282 188 L 282 349 L 51 349 Z M 51 188 " clip-rule="nonzero"/></clipPath><clipPath id="7a56dc6d51"><path d="M 47.644531 231.320312 L 258.152344 184.671875 L 284.867188 305.230469 L 74.359375 351.878906 Z M 47.644531 231.320312 " clip-rule="nonzero"/></clipPath><clipPath id="e48a7cffd9"><path d="M 65.949219 227.261719 L 239.652344 188.773438 C 244.507812 187.695312 249.589844 188.59375 253.785156 191.265625 C 257.976562 193.9375 260.9375 198.167969 262.015625 203.019531 L 280.617188 286.96875 C 281.691406 291.824219 280.792969 296.90625 278.121094 301.101562 C 275.449219 305.292969 271.222656 308.253906 266.367188 309.332031 L 92.664062 347.820312 C 87.808594 348.898438 82.726562 348 78.53125 345.328125 C 74.339844 342.65625 71.378906 338.425781 70.304688 333.570312 L 51.699219 249.625 C 50.625 244.769531 51.523438 239.6875 54.195312 235.492188 C 56.867188 231.300781 61.09375 228.339844 65.949219 227.261719 Z M 65.949219 227.261719 " clip-rule="nonzero"/></clipPath><clipPath id="709037b3b6"><path d="M 51 188 L 282 188 L 282 349 L 51 349 Z M 51 188 " clip-rule="nonzero"/></clipPath><clipPath id="35432724fd"><path d="M 47.644531 231.320312 L 257.519531 184.8125 L 284.277344 305.5625 L 74.402344 352.070312 Z M 47.644531 231.320312 " clip-rule="nonzero"/></clipPath><clipPath id="fac0bb6f9f"><path d="M 47.644531 231.320312 L 258.738281 184.542969 L 285.671875 306.082031 L 74.578125 352.855469 Z M 47.644531 231.320312 " clip-rule="nonzero"/></clipPath><clipPath id="e8aef2dd26"><path d="M 65.949219 227.261719 L 239.648438 188.773438 C 244.503906 187.695312 249.585938 188.59375 253.78125 191.265625 C 257.976562 193.9375 260.933594 198.167969 262.011719 203.019531 L 280.613281 286.964844 C 281.6875 291.820312 280.792969 296.90625 278.121094 301.097656 C 275.445312 305.292969 271.21875 308.253906 266.363281 309.328125 L 92.664062 347.820312 C 87.8125 348.894531 82.726562 347.996094 78.535156 345.324219 C 74.339844 342.652344 71.378906 338.425781 70.304688 333.570312 L 51.703125 249.625 C 50.625 244.769531 51.523438 239.6875 54.195312 235.492188 C 56.867188 231.296875 61.097656 228.339844 65.949219 227.261719 Z M 65.949219 227.261719 " clip-rule="nonzero"/></clipPath><clipPath id="7ce9c05853"><path d="M 250 223 L 293 223 L 293 267 L 250 267 Z M 250 223 " clip-rule="nonzero"/></clipPath><clipPath id="4a6b3b944c"><path d="M 246.140625 228.949219 L 287.359375 219.816406 L 296.492188 261.035156 L 255.273438 270.167969 Z M 246.140625 228.949219 " clip-rule="nonzero"/></clipPath><clipPath id="2a52251208"><path d="M 266.75 224.382812 C 255.367188 226.90625 248.183594 238.179688 250.707031 249.558594 C 253.230469 260.941406 264.5 268.125 275.882812 265.601562 C 287.265625 263.078125 294.445312 251.808594 291.925781 240.425781 C 289.402344 229.042969 278.132812 221.863281 266.75 224.382812 Z M 266.75 224.382812 " clip-rule="nonzero"/></clipPath><clipPath id="fea9c07148"><path d="M 250 223 L 293 223 L 293 267 L 250 267 Z M 250 223 " clip-rule="nonzero"/></clipPath><clipPath id="0a626ac22c"><path d="M 246.140625 228.949219 L 287.347656 219.820312 L 296.480469 261.027344 L 255.273438 270.160156 Z M 246.140625 228.949219 " clip-rule="nonzero"/></clipPath><clipPath id="faa77c6eec"><path d="M 246.140625 228.949219 L 287.347656 219.820312 L 296.480469 261.027344 L 255.273438 270.160156 Z M 246.140625 228.949219 " clip-rule="nonzero"/></clipPath><clipPath id="1ee0f7a2d4"><path d="M 266.746094 224.386719 C 255.363281 226.90625 248.183594 238.175781 250.707031 249.554688 C 253.226562 260.933594 264.496094 268.117188 275.875 265.59375 C 287.253906 263.074219 294.4375 251.804688 291.914062 240.425781 C 289.394531 229.042969 278.125 221.863281 266.746094 224.386719 Z M 266.746094 224.386719 " clip-rule="nonzero"/></clipPath><clipPath id="49abb11a9b"><path d="M 39 270 L 83 270 L 83 313 L 39 313 Z M 39 270 " clip-rule="nonzero"/></clipPath><clipPath id="e792f77fb7"><path d="M 35.828125 275.554688 L 77.046875 266.421875 L 86.179688 307.640625 L 44.960938 316.773438 Z M 35.828125 275.554688 " clip-rule="nonzero"/></clipPath><clipPath id="11c5a3d71e"><path d="M 56.4375 270.988281 C 45.054688 273.511719 37.871094 284.78125 40.394531 296.164062 C 42.917969 307.546875 54.1875 314.726562 65.570312 312.207031 C 76.953125 309.683594 84.132812 298.414062 81.613281 287.03125 C 79.089844 275.648438 67.816406 268.464844 56.4375 270.988281 Z M 56.4375 270.988281 " clip-rule="nonzero"/></clipPath><clipPath id="d02badaf2e"><path d="M 39 270 L 83 270 L 83 313 L 39 313 Z M 39 270 " clip-rule="nonzero"/></clipPath><clipPath id="2f75616c0a"><path d="M 35.828125 275.554688 L 77.035156 266.421875 L 86.167969 307.632812 L 44.960938 316.765625 Z M 35.828125 275.554688 " clip-rule="nonzero"/></clipPath><clipPath id="c71ed01df4"><path d="M 35.828125 275.554688 L 77.035156 266.421875 L 86.167969 307.632812 L 44.960938 316.765625 Z M 35.828125 275.554688 " clip-rule="nonzero"/></clipPath><clipPath id="f80b299f17"><path d="M 56.433594 270.988281 C 45.050781 273.511719 37.871094 284.78125 40.394531 296.160156 C 42.914062 307.539062 54.183594 314.71875 65.5625 312.199219 C 76.941406 309.675781 84.125 298.40625 81.601562 287.027344 C 79.082031 275.648438 67.8125 268.46875 56.433594 270.988281 Z M 56.433594 270.988281 " clip-rule="nonzero"/></clipPath><clipPath id="9d9452eac3"><path d="M 119 228 L 193 228 L 193 313 L 119 313 Z M 119 228 " clip-rule="nonzero"/></clipPath><clipPath id="5301367d7e"><path d="M 119.285156 243.699219 L 139.507812 228.238281 L 192.433594 297.445312 L 172.214844 312.910156 Z M 119.285156 243.699219 " clip-rule="nonzero"/></clipPath><clipPath id="29ab58ed38"><path d="M 106 228 L 170 228 L 170 324 L 106 324 Z M 106 228 " clip-rule="nonzero"/></clipPath><clipPath id="a0ed8b347a"><path d="M 106.164062 235.457031 L 159.5 223.636719 L 179.027344 311.769531 L 125.691406 323.589844 Z M 106.164062 235.457031 " clip-rule="nonzero"/></clipPath><clipPath id="68ab6a4190"><path d="M 106.164062 235.457031 L 139.03125 228.175781 L 169.242188 267.609375 L 158.519531 316.117188 L 125.652344 323.402344 L 136.375 274.894531 Z M 106.164062 235.457031 " clip-rule="nonzero"/></clipPath><clipPath id="45a66583d6"><path d="M 152 218 L 216 218 L 216 314 L 152 314 Z M 152 218 " clip-rule="nonzero"/></clipPath><clipPath id="0409440315"><path d="M 152.660156 225.324219 L 205.996094 213.507812 L 225.527344 301.636719 L 172.1875 313.457031 Z M 152.660156 225.324219 " clip-rule="nonzero"/></clipPath><clipPath id="0110c20958"><path d="M 152.660156 225.324219 L 185.527344 218.042969 L 215.742188 257.476562 L 205.015625 305.988281 L 172.148438 313.269531 L 182.875 264.761719 Z M 152.660156 225.324219 " clip-rule="nonzero"/></clipPath><clipPath id="b38e5283b8"><path d="M 26 270 L 66 270 L 66 320 L 26 320 Z M 26 270 " clip-rule="nonzero"/></clipPath><clipPath id="aa92a514af"><path d="M 26.996094 276.679688 L 56.472656 270.492188 L 65.4375 313.191406 L 35.960938 319.378906 Z M 26.996094 276.679688 " clip-rule="nonzero"/></clipPath><clipPath id="37cf88ef1e"><path d="M 266 218 L 301 218 L 301 267 L 266 267 Z M 266 218 " clip-rule="nonzero"/></clipPath><clipPath id="a3f6670356"><path d="M 266.066406 223.597656 L 290.566406 218.070312 L 300.167969 260.625 L 275.667969 266.152344 Z M 266.066406 223.597656 " clip-rule="nonzero"/></clipPath><clipPath id="34c3002d2d"><path d="M 7 127 L 240 127 L 240 338 L 7 338 Z M 7 127 " clip-rule="nonzero"/></clipPath><clipPath id="97cbd0f1f1"><path d="M 0.00390625 243.515625 L 176.414062 119.546875 L 247.410156 220.578125 L 71 344.546875 Z M 0.00390625 243.515625 " clip-rule="nonzero"/></clipPath><clipPath id="8686ba8d55"><path d="M 15.34375 232.734375 L 160.910156 130.441406 C 164.976562 127.582031 170.015625 126.457031 174.914062 127.308594 C 179.8125 128.164062 184.171875 130.933594 187.03125 135 L 236.46875 205.351562 C 239.328125 209.417969 240.453125 214.457031 239.597656 219.355469 C 238.742188 224.253906 235.976562 228.613281 231.90625 231.472656 L 86.34375 333.765625 C 82.273438 336.625 77.234375 337.75 72.335938 336.894531 C 67.4375 336.039062 63.078125 333.273438 60.21875 329.207031 L 10.785156 258.855469 C 7.925781 254.789062 6.796875 249.75 7.652344 244.851562 C 8.507812 239.953125 11.273438 235.59375 15.34375 232.734375 Z M 15.34375 232.734375 " clip-rule="nonzero"/></clipPath><clipPath id="d5ce1e75ff"><path d="M 7 127 L 240 127 L 240 338 L 7 338 Z M 7 127 " clip-rule="nonzero"/></clipPath><clipPath id="de944b4095"><path d="M 0.00390625 243.515625 L 175.882812 119.917969 L 246.996094 221.109375 L 71.113281 344.707031 Z M 0.00390625 243.515625 " clip-rule="nonzero"/></clipPath><clipPath id="8f375226dc"><path d="M 0.00390625 243.515625 L 176.902344 119.199219 L 248.480469 221.050781 L 71.578125 345.367188 Z M 0.00390625 243.515625 " clip-rule="nonzero"/></clipPath><clipPath id="c1d3c82321"><path d="M 15.34375 232.734375 L 160.90625 130.441406 C 164.976562 127.582031 170.011719 126.457031 174.910156 127.3125 C 179.808594 128.167969 184.167969 130.933594 187.027344 135 L 236.464844 205.351562 C 239.324219 209.417969 240.449219 214.457031 239.59375 219.355469 C 238.738281 224.253906 235.972656 228.613281 231.902344 231.472656 L 86.339844 333.765625 C 82.273438 336.621094 77.234375 337.75 72.335938 336.894531 C 67.4375 336.039062 63.078125 333.273438 60.21875 329.203125 L 10.785156 258.855469 C 7.925781 254.789062 6.800781 249.75 7.652344 244.851562 C 8.507812 239.953125 11.277344 235.59375 15.34375 232.734375 Z M 15.34375 232.734375 " clip-rule="nonzero"/></clipPath><clipPath id="4d87308396"><path d="M 190 149 L 233 149 L 233 192 L 190 192 Z M 190 149 " clip-rule="nonzero"/></clipPath><clipPath id="1f9f2f9e4d"><path d="M 182.34375 165.039062 L 216.882812 140.765625 L 241.15625 175.308594 L 206.617188 199.582031 Z M 182.34375 165.039062 " clip-rule="nonzero"/></clipPath><clipPath id="e8cee0e2b4"><path d="M 199.613281 152.902344 C 190.074219 159.605469 187.777344 172.773438 194.480469 182.308594 C 201.183594 191.847656 214.347656 194.148438 223.886719 187.445312 C 233.425781 180.742188 235.722656 167.574219 229.019531 158.035156 C 222.316406 148.5 209.152344 146.199219 199.613281 152.902344 Z M 199.613281 152.902344 " clip-rule="nonzero"/></clipPath><clipPath id="7e17e403a8"><path d="M 190 149 L 233 149 L 233 192 L 190 192 Z M 190 149 " clip-rule="nonzero"/></clipPath><clipPath id="a30f6611a5"><path d="M 182.34375 165.039062 L 216.875 140.769531 L 241.144531 175.304688 L 206.609375 199.574219 Z M 182.34375 165.039062 " clip-rule="nonzero"/></clipPath><clipPath id="ec9be16566"><path d="M 182.34375 165.039062 L 216.875 140.769531 L 241.144531 175.304688 L 206.609375 199.574219 Z M 182.34375 165.039062 " clip-rule="nonzero"/></clipPath><clipPath id="82f7e7c38e"><path d="M 199.609375 152.90625 C 190.074219 159.605469 187.773438 172.769531 194.476562 182.304688 C 201.179688 191.84375 214.339844 194.140625 223.878906 187.4375 C 233.414062 180.738281 235.710938 167.574219 229.011719 158.039062 C 222.308594 148.5 209.144531 146.203125 199.609375 152.90625 Z M 199.609375 152.90625 " clip-rule="nonzero"/></clipPath><clipPath id="8d733ff5db"><path d="M 14 272 L 57 272 L 57 316 L 14 316 Z M 14 272 " clip-rule="nonzero"/></clipPath><clipPath id="580f3df16e"><path d="M 6.09375 288.894531 L 40.636719 264.621094 L 64.910156 299.164062 L 30.367188 323.4375 Z M 6.09375 288.894531 " clip-rule="nonzero"/></clipPath><clipPath id="1f3a5d55bf"><path d="M 23.367188 276.757812 C 13.828125 283.460938 11.527344 296.628906 18.230469 306.167969 C 24.933594 315.703125 38.101562 318.003906 47.640625 311.300781 C 57.175781 304.597656 59.476562 291.429688 52.773438 281.894531 C 46.070312 272.355469 32.902344 270.054688 23.367188 276.757812 Z M 23.367188 276.757812 " clip-rule="nonzero"/></clipPath><clipPath id="25da958c53"><path d="M 14 272 L 57 272 L 57 316 L 14 316 Z M 14 272 " clip-rule="nonzero"/></clipPath><clipPath id="8159864de8"><path d="M 6.09375 288.894531 L 40.628906 264.628906 L 64.898438 299.160156 L 30.363281 323.429688 Z M 6.09375 288.894531 " clip-rule="nonzero"/></clipPath><clipPath id="c0d4ad5e6a"><path d="M 6.09375 288.894531 L 40.628906 264.628906 L 64.898438 299.160156 L 30.363281 323.429688 Z M 6.09375 288.894531 " clip-rule="nonzero"/></clipPath><clipPath id="606bda7ac2"><path d="M 23.363281 276.761719 C 13.824219 283.464844 11.527344 296.625 18.230469 306.164062 C 24.929688 315.699219 38.09375 317.996094 47.628906 311.296875 C 57.167969 304.59375 59.464844 291.429688 52.761719 281.894531 C 46.0625 272.359375 32.898438 270.058594 23.363281 276.761719 Z M 23.363281 276.761719 " clip-rule="nonzero"/></clipPath><clipPath id="4a1100374e"><path d="M 70 205 L 160 205 L 160 271 L 70 271 Z M 70 205 " clip-rule="nonzero"/></clipPath><clipPath id="90256014c5"><path d="M 70.902344 227.410156 L 83.625 205.363281 L 159.085938 248.914062 L 146.363281 270.964844 Z M 70.902344 227.410156 " clip-rule="nonzero"/></clipPath><clipPath id="a28f14b983"><path d="M 55 205 L 135 205 L 135 299 L 55 299 Z M 55 205 " clip-rule="nonzero"/></clipPath><clipPath id="bfc667e5d3"><path d="M 55.617188 224.84375 L 100.316406 193.433594 L 152.214844 267.289062 L 107.519531 298.699219 Z M 55.617188 224.84375 " clip-rule="nonzero"/></clipPath><clipPath id="dd3c0723bf"><path d="M 55.617188 224.84375 L 83.160156 205.488281 L 126.210938 230.285156 L 134.953125 279.1875 L 107.410156 298.542969 L 98.667969 249.640625 Z M 55.617188 224.84375 " clip-rule="nonzero"/></clipPath><clipPath id="bd7b742434"><path d="M 94 178 L 174 178 L 174 272 L 94 272 Z M 94 178 " clip-rule="nonzero"/></clipPath><clipPath id="e2d521b0f6"><path d="M 94.648438 197.621094 L 139.34375 166.210938 L 191.246094 240.066406 L 146.550781 271.476562 Z M 94.648438 197.621094 " clip-rule="nonzero"/></clipPath><clipPath id="c4da24d51b"><path d="M 94.648438 197.621094 L 122.191406 178.265625 L 165.242188 203.058594 L 173.984375 251.964844 L 146.441406 271.320312 L 137.699219 222.414062 Z M 94.648438 197.621094 " clip-rule="nonzero"/></clipPath><clipPath id="b38695d6b6"><path d="M 0 276 L 48 276 L 48 330 L 0 330 Z M 0 276 " clip-rule="nonzero"/></clipPath><clipPath id="84ac04e1a5"><path d="M -1.625 293.328125 L 23.210938 276.289062 L 47.894531 312.257812 L 23.0625 329.300781 Z M -1.625 293.328125 " clip-rule="nonzero"/></clipPath><clipPath id="243bc6754d"><path d="M 198 137 L 245 137 L 245 189 L 198 189 Z M 198 137 " clip-rule="nonzero"/></clipPath><clipPath id="49d94eb446"><path d="M 198.679688 152.441406 L 219.175781 137.921875 L 244.394531 173.515625 L 223.898438 188.035156 Z M 198.679688 152.441406 " clip-rule="nonzero"/></clipPath><clipPath id="512dcfae93"><path d="M 247 66 L 482 66 L 482 266 L 247 266 Z M 247 66 " clip-rule="nonzero"/></clipPath><clipPath id="1c74d30b1b"><path d="M 300.449219 59.867188 L 488.75 164.898438 L 428.597656 272.738281 L 240.296875 167.707031 Z M 300.449219 59.867188 " clip-rule="nonzero"/></clipPath><clipPath id="82f2cb5b6e"><path d="M 316.824219 69 L 472.199219 155.667969 C 476.542969 158.089844 479.746094 162.136719 481.105469 166.921875 C 482.460938 171.707031 481.863281 176.832031 479.441406 181.175781 L 437.558594 256.265625 C 435.136719 260.609375 431.085938 263.8125 426.304688 265.171875 C 421.519531 266.527344 416.390625 265.929688 412.046875 263.507812 L 256.671875 176.839844 C 252.328125 174.417969 249.125 170.371094 247.765625 165.585938 C 246.410156 160.800781 247.007812 155.675781 249.429688 151.332031 L 291.3125 76.242188 C 293.738281 71.898438 297.785156 68.695312 302.570312 67.335938 C 307.351562 65.980469 312.480469 66.578125 316.824219 69 Z M 316.824219 69 " clip-rule="nonzero"/></clipPath><clipPath id="d5b52efd9a"><path d="M 247 66 L 482 66 L 482 266 L 247 266 Z M 247 66 " clip-rule="nonzero"/></clipPath><clipPath id="03e23a1800"><path d="M 300.449219 59.867188 L 488.1875 164.582031 L 427.9375 272.597656 L 240.199219 167.878906 Z M 300.449219 59.867188 " clip-rule="nonzero"/></clipPath><clipPath id="7e7e1b0654"><path d="M 300.449219 59.867188 L 489.273438 165.191406 L 428.632812 273.90625 L 239.808594 168.582031 Z M 300.449219 59.867188 " clip-rule="nonzero"/></clipPath><clipPath id="a9ec97addc"><path d="M 316.824219 69 L 472.199219 155.664062 C 476.542969 158.089844 479.742188 162.136719 481.101562 166.921875 C 482.460938 171.703125 481.863281 176.832031 479.441406 181.171875 L 437.554688 256.265625 C 435.132812 260.605469 431.085938 263.808594 426.300781 265.167969 C 421.515625 266.523438 416.390625 265.925781 412.046875 263.503906 L 256.671875 176.839844 C 252.328125 174.417969 249.125 170.367188 247.769531 165.585938 C 246.410156 160.800781 247.007812 155.675781 249.429688 151.332031 L 291.316406 76.242188 C 293.738281 71.898438 297.785156 68.695312 302.570312 67.335938 C 307.351562 65.980469 312.480469 66.578125 316.824219 69 Z M 316.824219 69 " clip-rule="nonzero"/></clipPath><clipPath id="c3b383dbae"><path d="M 437 197 L 480 197 L 480 240 L 437 240 Z M 437 197 " clip-rule="nonzero"/></clipPath><clipPath id="9af4568c44"><path d="M 450.347656 190.003906 L 487.21875 210.570312 L 466.652344 247.4375 L 429.785156 226.875 Z M 450.347656 190.003906 " clip-rule="nonzero"/></clipPath><clipPath id="10eb0d6351"><path d="M 468.785156 200.285156 C 458.601562 194.605469 445.746094 198.257812 440.066406 208.4375 C 434.386719 218.621094 438.039062 231.476562 448.21875 237.15625 C 458.398438 242.835938 471.257812 239.183594 476.9375 229.003906 C 482.613281 218.824219 478.964844 205.964844 468.785156 200.285156 Z M 468.785156 200.285156 " clip-rule="nonzero"/></clipPath><clipPath id="368cf01e8f"><path d="M 437 197 L 480 197 L 480 240 L 437 240 Z M 437 197 " clip-rule="nonzero"/></clipPath><clipPath id="bdb711705e"><path d="M 450.347656 190.003906 L 487.210938 210.5625 L 466.648438 247.425781 L 429.789062 226.863281 Z M 450.347656 190.003906 " clip-rule="nonzero"/></clipPath><clipPath id="5d0d5146d1"><path d="M 450.347656 190.003906 L 487.210938 210.5625 L 466.648438 247.425781 L 429.789062 226.863281 Z M 450.347656 190.003906 " clip-rule="nonzero"/></clipPath><clipPath id="bcb5c861eb"><path d="M 468.78125 200.285156 C 458.601562 194.605469 445.746094 198.253906 440.070312 208.433594 C 434.390625 218.613281 438.039062 231.46875 448.21875 237.144531 C 458.398438 242.824219 471.253906 239.175781 476.929688 228.996094 C 482.609375 218.816406 478.960938 205.960938 468.78125 200.285156 Z M 468.78125 200.285156 " clip-rule="nonzero"/></clipPath><clipPath id="19bf947b85"><path d="M 249 92 L 292 92 L 292 135 L 249 135 Z M 249 92 " clip-rule="nonzero"/></clipPath><clipPath id="10c442dcdb"><path d="M 262.222656 85.070312 L 299.089844 105.632812 L 278.527344 142.503906 L 241.65625 121.9375 Z M 262.222656 85.070312 " clip-rule="nonzero"/></clipPath><clipPath id="1e528ad2f1"><path d="M 280.65625 95.351562 C 270.476562 89.671875 257.617188 93.324219 251.9375 103.503906 C 246.257812 113.683594 249.910156 126.542969 260.089844 132.222656 C 270.273438 137.898438 283.128906 134.25 288.808594 124.070312 C 294.488281 113.886719 290.835938 101.03125 280.65625 95.351562 Z M 280.65625 95.351562 " clip-rule="nonzero"/></clipPath><clipPath id="245b6d0f40"><path d="M 249 92 L 292 92 L 292 135 L 249 135 Z M 249 92 " clip-rule="nonzero"/></clipPath><clipPath id="ffc1e06be0"><path d="M 262.222656 85.070312 L 299.082031 105.628906 L 278.523438 142.492188 L 241.660156 121.929688 Z M 262.222656 85.070312 " clip-rule="nonzero"/></clipPath><clipPath id="f3bb8fd2eb"><path d="M 262.222656 85.070312 L 299.082031 105.628906 L 278.523438 142.492188 L 241.660156 121.929688 Z M 262.222656 85.070312 " clip-rule="nonzero"/></clipPath><clipPath id="74993f09f9"><path d="M 280.652344 95.347656 C 270.472656 89.671875 257.617188 93.320312 251.941406 103.5 C 246.261719 113.679688 249.914062 126.535156 260.089844 132.210938 C 270.269531 137.886719 283.125 134.238281 288.800781 124.058594 C 294.480469 113.882812 290.832031 101.027344 280.652344 95.347656 Z M 280.652344 95.347656 " clip-rule="nonzero"/></clipPath><clipPath id="aff770f8d4"><path d="M 339 116 L 372 116 L 372 206 L 339 206 Z M 339 116 " clip-rule="nonzero"/></clipPath><clipPath id="6b74d0c20d"><path d="M 345.753906 116.726562 L 371.140625 118.609375 L 364.699219 205.5 L 339.3125 203.617188 Z M 345.753906 116.726562 " clip-rule="nonzero"/></clipPath><clipPath id="da783d3d16"><path d="M 297 101 L 371 101 L 371 197 L 297 197 Z M 297 101 " clip-rule="nonzero"/></clipPath><clipPath id="3d4ce5ec0a"><path d="M 341.425781 101.84375 L 389.136719 128.457031 L 345.164062 207.292969 L 297.453125 180.679688 Z M 341.425781 101.84375 " clip-rule="nonzero"/></clipPath><clipPath id="cb4efef1e2"><path d="M 341.425781 101.84375 L 370.828125 118.246094 L 367.195312 167.792969 L 326.945312 196.910156 L 297.546875 180.511719 L 337.796875 151.394531 Z M 341.425781 101.84375 " clip-rule="nonzero"/></clipPath><clipPath id="525dd20638"><path d="M 339 125 L 413 125 L 413 221 L 339 221 Z M 339 125 " clip-rule="nonzero"/></clipPath><clipPath id="cc8a6b3fa2"><path d="M 382.90625 125.171875 L 430.613281 151.785156 L 386.640625 230.621094 L 338.933594 204.007812 Z M 382.90625 125.171875 " clip-rule="nonzero"/></clipPath><clipPath id="801f8c150b"><path d="M 382.90625 125.171875 L 412.304688 141.570312 L 408.675781 191.117188 L 368.425781 220.238281 L 339.023438 203.839844 L 379.273438 174.71875 Z M 382.90625 125.171875 " clip-rule="nonzero"/></clipPath><clipPath id="61300150ef"><path d="M 233 80 L 282 80 L 282 133 L 233 133 Z M 233 80 " clip-rule="nonzero"/></clipPath><clipPath id="57c0591083"><path d="M 254.875 80.042969 L 281.011719 95.007812 L 259.335938 132.867188 L 233.199219 117.902344 Z M 254.875 80.042969 " clip-rule="nonzero"/></clipPath><clipPath id="054bd7abe3"><path d="M 447 199 L 491 199 L 491 250 L 447 250 Z M 447 199 " clip-rule="nonzero"/></clipPath><clipPath id="7b09f819bd"><path d="M 468.796875 199.246094 L 490.777344 211.398438 L 469.671875 249.574219 L 447.691406 237.425781 Z M 468.796875 199.246094 " clip-rule="nonzero"/></clipPath><clipPath id="ac8066e536"><path d="M 301 16 L 519 16 L 519 247 L 301 247 Z M 301 16 " clip-rule="nonzero"/></clipPath><clipPath id="a022d9fbb7"><path d="M 389.746094 9.019531 L 526 176.125 L 430.296875 254.160156 L 294.042969 87.054688 Z M 389.746094 9.019531 " clip-rule="nonzero"/></clipPath><clipPath id="618f9d3055"><path d="M 401.59375 23.554688 L 514.027344 161.441406 C 517.167969 165.292969 518.652344 170.238281 518.148438 175.1875 C 517.644531 180.132812 515.195312 184.679688 511.34375 187.820312 L 444.703125 242.15625 C 440.851562 245.296875 435.90625 246.78125 430.960938 246.277344 C 426.011719 245.773438 421.46875 243.328125 418.324219 239.472656 L 305.894531 101.585938 C 302.75 97.730469 301.269531 92.789062 301.769531 87.839844 C 302.273438 82.894531 304.722656 78.347656 308.578125 75.207031 L 375.214844 20.871094 C 379.070312 17.726562 384.011719 16.246094 388.960938 16.746094 C 393.90625 17.25 398.453125 19.699219 401.59375 23.554688 Z M 401.59375 23.554688 " clip-rule="nonzero"/></clipPath><clipPath id="5718dccce5"><path d="M 301 16 L 519 16 L 519 247 L 301 247 Z M 301 16 " clip-rule="nonzero"/></clipPath><clipPath id="24dfff26f5"><path d="M 389.746094 9.019531 L 525.59375 175.625 L 429.738281 253.785156 L 293.890625 87.179688 Z M 389.746094 9.019531 " clip-rule="nonzero"/></clipPath><clipPath id="c3242f3446"><path d="M 389.746094 9.023438 L 526.378906 176.589844 L 429.902344 255.257812 L 293.269531 87.691406 Z M 389.746094 9.023438 " clip-rule="nonzero"/></clipPath><clipPath id="175656e99a"><path d="M 401.59375 23.554688 L 514.023438 161.4375 C 517.167969 165.292969 518.648438 170.234375 518.144531 175.183594 C 517.644531 180.128906 515.195312 184.675781 511.339844 187.816406 L 444.703125 242.152344 C 440.851562 245.296875 435.90625 246.777344 430.957031 246.273438 C 426.011719 245.773438 421.46875 243.324219 418.324219 239.46875 L 305.894531 101.585938 C 302.753906 97.730469 301.269531 92.785156 301.773438 87.839844 C 302.277344 82.894531 304.722656 78.347656 308.578125 75.207031 L 375.214844 20.871094 C 379.070312 17.726562 384.015625 16.246094 388.960938 16.75 C 393.910156 17.25 398.453125 19.699219 401.59375 23.554688 Z M 401.59375 23.554688 " clip-rule="nonzero"/></clipPath><clipPath id="70b6e2549a"><path d="M 456 193 L 500 193 L 500 237 L 456 237 Z M 456 193 " clip-rule="nonzero"/></clipPath><clipPath id="dc83641fb8"><path d="M 481.046875 185.289062 L 507.726562 218.007812 L 475.003906 244.6875 L 448.328125 211.96875 Z M 481.046875 185.289062 " clip-rule="nonzero"/></clipPath><clipPath id="d82dedad62"><path d="M 494.386719 201.648438 C 487.019531 192.613281 473.722656 191.261719 464.6875 198.628906 C 455.652344 205.996094 454.300781 219.292969 461.667969 228.328125 C 469.035156 237.363281 482.328125 238.714844 491.363281 231.347656 C 500.398438 223.980469 501.753906 210.683594 494.386719 201.648438 Z M 494.386719 201.648438 " clip-rule="nonzero"/></clipPath><clipPath id="a4f9343e62"><path d="M 456 193 L 500 193 L 500 237 L 456 237 Z M 456 193 " clip-rule="nonzero"/></clipPath><clipPath id="005d7fa454"><path d="M 481.046875 185.289062 L 507.71875 218 L 475.007812 244.675781 L 448.332031 211.960938 Z M 481.046875 185.289062 " clip-rule="nonzero"/></clipPath><clipPath id="969a870aff"><path d="M 481.046875 185.289062 L 507.71875 218 L 475.007812 244.675781 L 448.332031 211.960938 Z M 481.046875 185.289062 " clip-rule="nonzero"/></clipPath><clipPath id="1689652f81"><path d="M 494.382812 201.644531 C 487.015625 192.613281 473.722656 191.261719 464.691406 198.625 C 455.65625 205.992188 454.304688 219.285156 461.671875 228.320312 C 469.035156 237.351562 482.328125 238.703125 491.363281 231.339844 C 500.394531 223.972656 501.75 210.679688 494.382812 201.644531 Z M 494.382812 201.644531 " clip-rule="nonzero"/></clipPath><clipPath id="3b8b6880b8"><path d="M 320 26 L 364 26 L 364 70 L 320 70 Z M 320 26 " clip-rule="nonzero"/></clipPath><clipPath id="90d1c897d2"><path d="M 344.917969 18.339844 L 371.597656 51.058594 L 338.878906 77.738281 L 312.199219 45.019531 Z M 344.917969 18.339844 " clip-rule="nonzero"/></clipPath><clipPath id="82472fb42d"><path d="M 358.257812 34.699219 C 350.890625 25.664062 337.59375 24.3125 328.558594 31.679688 C 319.523438 39.046875 318.171875 52.34375 325.539062 61.378906 C 332.90625 70.414062 346.203125 71.765625 355.238281 64.398438 C 364.273438 57.03125 365.625 43.734375 358.257812 34.699219 Z M 358.257812 34.699219 " clip-rule="nonzero"/></clipPath><clipPath id="d43fd1d23a"><path d="M 320 26 L 364 26 L 364 70 L 320 70 Z M 320 26 " clip-rule="nonzero"/></clipPath><clipPath id="4e8bebdd11"><path d="M 344.917969 18.339844 L 371.589844 51.050781 L 338.878906 77.726562 L 312.207031 45.011719 Z M 344.917969 18.339844 " clip-rule="nonzero"/></clipPath><clipPath id="0e15149bab"><path d="M 344.917969 18.339844 L 371.589844 51.050781 L 338.878906 77.726562 L 312.207031 45.011719 Z M 344.917969 18.339844 " clip-rule="nonzero"/></clipPath><clipPath id="ae8c08191c"><path d="M 358.253906 34.695312 C 350.886719 25.664062 337.59375 24.308594 328.5625 31.675781 C 319.527344 39.042969 318.175781 52.335938 325.542969 61.367188 C 332.90625 70.402344 346.199219 71.753906 355.234375 64.386719 C 364.269531 57.023438 365.621094 43.730469 358.253906 34.695312 Z M 358.253906 34.695312 " clip-rule="nonzero"/></clipPath><clipPath id="fc8c4b6ca8"><path d="M 372 78 L 434 78 L 434 169 L 372 169 Z M 372 78 " clip-rule="nonzero"/></clipPath><clipPath id="243132e61b"><path d="M 410.875 78.589844 L 433.773438 89.707031 L 395.722656 168.085938 L 372.824219 156.96875 Z M 410.875 78.589844 " clip-rule="nonzero"/></clipPath><clipPath id="1b72dab1b7"><path d="M 342 63 L 434 63 L 434 147 L 342 147 Z M 342 63 " clip-rule="nonzero"/></clipPath><clipPath id="c58c77014c"><path d="M 412.339844 63.160156 L 446.863281 105.5 L 376.90625 162.542969 L 342.382812 120.203125 Z M 412.339844 63.160156 " clip-rule="nonzero"/></clipPath><clipPath id="f85537c22f"><path d="M 412.339844 63.160156 L 433.617188 89.25 L 411.957031 133.960938 L 363.804688 146.171875 L 342.53125 120.082031 L 390.683594 107.871094 Z M 412.339844 63.160156 " clip-rule="nonzero"/></clipPath><clipPath id="aef27d4816"><path d="M 372 100 L 464 100 L 464 184 L 372 184 Z M 372 100 " clip-rule="nonzero"/></clipPath><clipPath id="dc8edf6e14"><path d="M 442.285156 100.144531 L 476.808594 142.484375 L 406.847656 199.53125 L 372.324219 157.191406 Z M 442.285156 100.144531 " clip-rule="nonzero"/></clipPath><clipPath id="66f7bddcd1"><path d="M 442.285156 100.144531 L 463.558594 126.238281 L 441.902344 170.949219 L 393.746094 183.160156 L 372.472656 157.070312 L 420.628906 144.859375 Z M 442.285156 100.144531 " clip-rule="nonzero"/></clipPath><clipPath id="dbe591273a"><path d="M 305 10 L 359 10 L 359 62 L 305 62 Z M 305 10 " clip-rule="nonzero"/></clipPath><clipPath id="36f9563525"><path d="M 339.945312 10.957031 L 358.714844 34.511719 L 324.597656 61.703125 L 305.828125 38.148438 Z M 339.945312 10.957031 " clip-rule="nonzero"/></clipPath><clipPath id="d2d1c8d23e"><path d="M 461 200 L 511 200 L 511 248 L 461 248 Z M 461 200 " clip-rule="nonzero"/></clipPath><clipPath id="6578dc943c"><path d="M 494.78125 200.6875 L 510.726562 220.09375 L 477.023438 247.789062 L 461.074219 228.382812 Z M 494.78125 200.6875 " clip-rule="nonzero"/></clipPath></defs><rect x="-52.5" width="630" fill="#ffffff" y="-37.499999" height="449.999989" fill-opacity="1"/><rect x="-52.5" width="630" fill="#000000" y="-37.499999" height="449.999989" fill-opacity="1"/><g clip-path="url(#e48016b70c)"><g clip-path="url(#7a56dc6d51)"><g clip-path="url(#e48a7cffd9)"><path fill="#dd571c" d="M 47.644531 231.320312 L 258.152344 184.671875 L 284.867188 305.230469 L 74.359375 351.878906 Z M 47.644531 231.320312 " fill-opacity="1" fill-rule="nonzero"/></g></g></g><g clip-path="url(#709037b3b6)"><g clip-path="url(#35432724fd)"><g clip-path="url(#fac0bb6f9f)"><g clip-path="url(#e8aef2dd26)"><path stroke-linecap="butt" transform="matrix(0.958341, -0.212362, 0.212362, 0.958341, 47.645492, 231.318983)" fill="none" stroke-linejoin="miter" d="M 19.099676 -0.00126848 L 200.349132 0.00107679 C 205.41615 -0.00109557 210.272873 2.012616 213.856767 5.594806 C 217.44066 9.176996 219.449402 14.036489 219.452435 19.099623 L 219.452253 106.694022 C 219.45054 111.76018 217.439853 116.621649 213.858523 120.201658 C 210.272448 123.78469 205.41598 125.798178 200.349822 125.796465 L 19.099505 125.798005 C 14.037233 125.797153 9.176625 123.78258 5.596616 120.201251 C 2.012723 116.619061 -0.000765012 111.762593 0.000947902 106.696435 L 0.00113034 19.102035 C -0.00104202 14.035016 2.01267 9.178293 5.59486 5.5944 C 9.17705 2.010506 14.036543 0.00176483 19.099676 -0.00126848 Z M 19.099676 -0.00126848 " stroke="#ffffff" stroke-width="7.640682" stroke-opacity="1" stroke-miterlimit="4"/></g></g></g></g><g clip-path="url(#7ce9c05853)"><g clip-path="url(#4a6b3b944c)"><g clip-path="url(#2a52251208)"><path fill="#000000" d="M 246.140625 228.949219 L 287.359375 219.816406 L 296.492188 261.035156 L 255.273438 270.167969 Z M 246.140625 228.949219 " fill-opacity="1" fill-rule="nonzero"/></g></g></g><g clip-path="url(#fea9c07148)"><g clip-path="url(#0a626ac22c)"><g clip-path="url(#faa77c6eec)"><g clip-path="url(#1ee0f7a2d4)"><path stroke-linecap="butt" transform="matrix(0.958341, -0.212362, 0.212362, 0.958341, 246.140352, 228.951107)" fill="none" stroke-linejoin="miter" d="M 21.501104 0.00170305 C 9.6241 -0.00110909 -0.000882059 9.625479 0.00105203 21.499459 C -0.00089916 33.372579 9.624828 43.001446 21.498808 42.999512 C 33.371928 43.001463 43.000795 33.375736 42.998861 21.501755 C 43.001673 9.624751 33.375085 -0.000231032 21.501104 0.00170305 Z M 21.501104 0.00170305 " stroke="#ffffff" stroke-width="7.640682" stroke-opacity="1" stroke-miterlimit="4"/></g></g></g></g><g clip-path="url(#49abb11a9b)"><g clip-path="url(#e792f77fb7)"><g clip-path="url(#11c5a3d71e)"><path fill="#000000" d="M 35.828125 275.554688 L 77.046875 266.421875 L 86.179688 307.640625 L 44.960938 316.773438 Z M 35.828125 275.554688 " fill-opacity="1" fill-rule="nonzero"/></g></g></g><g clip-path="url(#d02badaf2e)"><g clip-path="url(#2f75616c0a)"><g clip-path="url(#c71ed01df4)"><g clip-path="url(#f80b299f17)"><path stroke-linecap="butt" transform="matrix(0.958341, -0.212362, 0.212362, 0.958341, 35.827654, 275.555051)" fill="none" stroke-linejoin="miter" d="M 21.501826 -0.00062146 C 9.62396 0.000451675 -0.00102178 9.627039 0.00091231 21.50102 C -0.00103888 33.374139 9.625549 42.999121 21.498668 43.001072 C 33.372649 42.999138 43.001516 33.373411 42.999582 21.499431 C 43.001533 9.626311 33.374945 0.00132973 21.501826 -0.00062146 Z M 21.501826 -0.00062146 " stroke="#ffffff" stroke-width="7.640682" stroke-opacity="1" stroke-miterlimit="4"/></g></g></g></g><g clip-path="url(#9d9452eac3)"><g clip-path="url(#5301367d7e)"><path fill="#a6a6a6" d="M 119.285156 243.699219 L 139.507812 228.238281 L 192.421875 297.429688 L 172.203125 312.894531 Z M 119.285156 243.699219 " fill-opacity="1" fill-rule="nonzero"/></g></g><g clip-path="url(#29ab58ed38)"><g clip-path="url(#a0ed8b347a)"><g clip-path="url(#68ab6a4190)"><path fill="#ffffff" d="M 106.164062 235.457031 L 159.5 223.636719 L 178.984375 311.5625 L 125.644531 323.378906 Z M 106.164062 235.457031 " fill-opacity="1" fill-rule="nonzero"/></g></g></g><g clip-path="url(#45a66583d6)"><g clip-path="url(#0409440315)"><g clip-path="url(#0110c20958)"><path fill="#ffffff" d="M 152.660156 225.324219 L 205.996094 213.507812 L 225.480469 301.429688 L 172.140625 313.246094 Z M 152.660156 225.324219 " fill-opacity="1" fill-rule="nonzero"/></g></g></g><g clip-path="url(#b38e5283b8)"><g clip-path="url(#aa92a514af)"><path fill="#000000" d="M 26.996094 276.679688 L 56.472656 270.492188 L 65.441406 313.210938 L 35.964844 319.398438 Z M 26.996094 276.679688 " fill-opacity="1" fill-rule="nonzero"/></g></g><g clip-path="url(#37cf88ef1e)"><g clip-path="url(#a3f6670356)"><path fill="#000000" d="M 266.066406 223.597656 L 290.566406 218.070312 L 300.175781 260.660156 L 275.675781 266.1875 Z M 266.066406 223.597656 " fill-opacity="1" fill-rule="nonzero"/></g></g><g clip-path="url(#34c3002d2d)"><g clip-path="url(#97cbd0f1f1)"><g clip-path="url(#8686ba8d55)"><path fill="#dd571c" d="M 0.00390625 243.515625 L 176.410156 119.546875 L 247.410156 220.578125 L 71 344.546875 Z M 0.00390625 243.515625 " fill-opacity="1" fill-rule="nonzero"/></g></g></g><g clip-path="url(#d5ce1e75ff)"><g clip-path="url(#de944b4095)"><g clip-path="url(#8f375226dc)"><g clip-path="url(#c1d3c82321)"><path stroke-linecap="butt" transform="matrix(0.803112, -0.56438, 0.56438, 0.803112, 0.00356896, 243.515228)" fill="none" stroke-linejoin="miter" d="M 19.10131 -0.000567075 L 200.349412 -0.00077217 C 205.416998 0.0000614219 210.272893 2.011697 213.854766 5.594018 C 217.439895 9.178626 219.450315 14.035064 219.451769 19.099394 L 219.450585 106.697202 C 219.45204 111.761532 217.438116 116.620682 213.855795 120.202556 C 210.273475 123.784429 205.414749 125.798104 200.347163 125.797271 L 19.099061 125.797476 C 14.037019 125.795675 9.175581 123.785007 5.593707 120.202686 C 2.011834 116.620366 -0.00184138 111.76164 -0.00100779 106.694054 L 0.00114414 19.10179 C -0.000310357 14.03746 2.013613 9.178309 5.592678 5.594148 C 9.174999 2.012274 14.03698 0.000887424 19.10131 -0.000567075 Z M 19.10131 -0.000567075 " stroke="#ffffff" stroke-width="7.640682" stroke-opacity="1" stroke-miterlimit="4"/></g></g></g></g><g clip-path="url(#4d87308396)"><g clip-path="url(#1f9f2f9e4d)"><g clip-path="url(#e8cee0e2b4)"><path fill="#000000" d="M 182.34375 165.039062 L 216.882812 140.765625 L 241.15625 175.308594 L 206.617188 199.582031 Z M 182.34375 165.039062 " fill-opacity="1" fill-rule="nonzero"/></g></g></g><g clip-path="url(#7e17e403a8)"><g clip-path="url(#a30f6611a5)"><g clip-path="url(#ec9be16566)"><g clip-path="url(#82f7e7c38e)"><path stroke-linecap="butt" transform="matrix(0.803112, -0.56438, 0.56438, 0.803112, 182.34225, 165.039613)" fill="none" stroke-linejoin="miter" d="M 21.499701 0.000792817 C 9.627841 -0.000478565 -0.000785377 9.624399 0.00119919 21.498548 C 0.000895674 33.375953 9.624806 42.999035 21.50221 42.999338 C 33.374071 43.00061 42.999441 33.373443 43.000712 21.501583 C 43.001016 9.624178 33.37385 -0.00119175 21.499701 0.000792817 Z M 21.499701 0.000792817 " stroke="#ffffff" stroke-width="7.640682" stroke-opacity="1" stroke-miterlimit="4"/></g></g></g></g><g clip-path="url(#8d733ff5db)"><g clip-path="url(#580f3df16e)"><g clip-path="url(#1f3a5d55bf)"><path fill="#000000" d="M 6.09375 288.894531 L 40.636719 264.621094 L 64.910156 299.164062 L 30.367188 323.4375 Z M 6.09375 288.894531 " fill-opacity="1" fill-rule="nonzero"/></g></g></g><g clip-path="url(#25da958c53)"><g clip-path="url(#8159864de8)"><g clip-path="url(#c0d4ad5e6a)"><g clip-path="url(#606bda7ac2)"><path stroke-linecap="butt" transform="matrix(0.803112, -0.56438, 0.56438, 0.803112, 6.095153, 288.895675)" fill="none" stroke-linejoin="miter" d="M 21.500885 0.000885988 C 9.623481 0.000582468 0.000398831 9.624493 0.000095311 21.501897 C -0.00117607 33.373758 9.62599 42.999128 21.497851 43.000399 C 33.375255 43.000703 43.000625 33.373537 42.998641 21.499388 C 42.999912 9.627527 33.375034 -0.00109858 21.500885 0.000885988 Z M 21.500885 0.000885988 " stroke="#ffffff" stroke-width="7.640682" stroke-opacity="1" stroke-miterlimit="4"/></g></g></g></g><g clip-path="url(#4a1100374e)"><g clip-path="url(#90256014c5)"><path fill="#a6a6a6" d="M 70.902344 227.410156 L 83.625 205.363281 L 159.070312 248.90625 L 146.347656 270.953125 Z M 70.902344 227.410156 " fill-opacity="1" fill-rule="nonzero"/></g></g><g clip-path="url(#a28f14b983)"><g clip-path="url(#bfc667e5d3)"><g clip-path="url(#dd3c0723bf)"><path fill="#ffffff" d="M 55.617188 224.84375 L 100.316406 193.433594 L 152.09375 267.117188 L 107.394531 298.527344 Z M 55.617188 224.84375 " fill-opacity="1" fill-rule="nonzero"/></g></g></g><g clip-path="url(#bd7b742434)"><g clip-path="url(#e2d521b0f6)"><g clip-path="url(#c4da24d51b)"><path fill="#ffffff" d="M 94.648438 197.621094 L 139.34375 166.210938 L 191.125 239.890625 L 146.425781 271.300781 Z M 94.648438 197.621094 " fill-opacity="1" fill-rule="nonzero"/></g></g></g><g clip-path="url(#b38695d6b6)"><g clip-path="url(#84ac04e1a5)"><path fill="#000000" d="M -1.625 293.328125 L 23.210938 276.289062 L 47.90625 312.277344 L 23.074219 329.320312 Z M -1.625 293.328125 " fill-opacity="1" fill-rule="nonzero"/></g></g><g clip-path="url(#243bc6754d)"><g clip-path="url(#49d94eb446)"><path fill="#000000" d="M 198.679688 152.441406 L 219.175781 137.921875 L 244.414062 173.546875 L 223.917969 188.066406 Z M 198.679688 152.441406 " fill-opacity="1" fill-rule="nonzero"/></g></g><g clip-path="url(#512dcfae93)"><g clip-path="url(#1c74d30b1b)"><g clip-path="url(#82f2cb5b6e)"><path fill="#dd571c" d="M 300.449219 59.867188 L 488.75 164.898438 L 428.597656 272.738281 L 240.296875 167.707031 Z M 300.449219 59.867188 " fill-opacity="1" fill-rule="nonzero"/></g></g></g><g clip-path="url(#d5b52efd9a)"><g clip-path="url(#03e23a1800)"><g clip-path="url(#7e7e1b0654)"><g clip-path="url(#a9ec97addc)"><path stroke-linecap="butt" transform="matrix(0.85725, 0.47816, -0.47816, 0.85725, 300.448698, 59.866326)" fill="none" stroke-linejoin="miter" d="M 19.102229 -0.000288047 L 200.349658 -0.00168865 C 205.418177 0.000899045 210.272888 2.013785 213.857053 5.596582 C 217.43928 9.175904 219.452843 14.035748 219.451792 19.098853 L 219.451212 106.697617 C 219.450161 111.760723 217.439214 116.618909 213.856417 120.203074 C 210.275157 123.781826 205.415313 125.795389 200.348732 125.796276 L 19.101304 125.797677 C 14.034723 125.798565 9.174598 123.784142 5.595847 120.202882 C 2.011682 116.620085 0.0000568195 111.763716 -0.000830924 106.697135 L 0.0016875 19.101846 C 0.000799759 14.035266 2.011748 9.177079 5.594544 5.592914 C 9.175804 2.014163 14.035649 0.000599697 19.102229 -0.000288047 Z M 19.102229 -0.000288047 " stroke="#ffffff" stroke-width="7.640682" stroke-opacity="1" stroke-miterlimit="4"/></g></g></g></g><g clip-path="url(#c3b383dbae)"><g clip-path="url(#9af4568c44)"><g clip-path="url(#10eb0d6351)"><path fill="#000000" d="M 450.347656 190.003906 L 487.21875 210.570312 L 466.652344 247.4375 L 429.785156 226.875 Z M 450.347656 190.003906 " fill-opacity="1" fill-rule="nonzero"/></g></g></g><g clip-path="url(#368cf01e8f)"><g clip-path="url(#bdb711705e)"><g clip-path="url(#5d0d5146d1)"><g clip-path="url(#bcb5c861eb)"><path stroke-linecap="butt" transform="matrix(0.85725, 0.47816, -0.47816, 0.85725, 450.349201, 190.003392)" fill="none" stroke-linejoin="miter" d="M 21.501706 0.000595001 C 9.62608 -0.000849991 -0.000982817 9.624947 0.00104763 21.498635 C -0.000397365 33.374261 9.6254 43.001323 21.499087 42.999293 C 33.374713 43.000738 43.001776 33.37494 42.999745 21.501253 C 43.00119 9.625627 33.375393 -0.00143544 21.501706 0.000595001 Z M 21.501706 0.000595001 " stroke="#ffffff" stroke-width="7.640682" stroke-opacity="1" stroke-miterlimit="4"/></g></g></g></g><g clip-path="url(#19bf947b85)"><g clip-path="url(#10c442dcdb)"><g clip-path="url(#1e528ad2f1)"><path fill="#000000" d="M 262.222656 85.070312 L 299.089844 105.632812 L 278.527344 142.503906 L 241.65625 121.9375 Z M 262.222656 85.070312 " fill-opacity="1" fill-rule="nonzero"/></g></g></g><g clip-path="url(#245b6d0f40)"><g clip-path="url(#ffc1e06be0)"><g clip-path="url(#f3bb8fd2eb)"><g clip-path="url(#74993f09f9)"><path stroke-linecap="butt" transform="matrix(0.85725, 0.47816, -0.47816, 0.85725, 262.221347, 85.06876)" fill="none" stroke-linejoin="miter" d="M 21.499346 -0.00143495 C 9.625659 0.000595489 -0.00140397 9.626393 0.000626474 21.50008 C -0.000818518 33.375706 9.628454 43.00083 21.498666 43.000738 C 33.374292 43.002183 42.999416 33.37291 42.997385 21.499223 C 43.000769 9.627073 33.374972 0.0000100373 21.499346 -0.00143495 Z M 21.499346 -0.00143495 " stroke="#ffffff" stroke-width="7.640682" stroke-opacity="1" stroke-miterlimit="4"/></g></g></g></g><g clip-path="url(#aff770f8d4)"><g clip-path="url(#6b74d0c20d)"><path fill="#a6a6a6" d="M 345.753906 116.726562 L 371.140625 118.609375 L 364.703125 205.480469 L 339.316406 203.597656 Z M 345.753906 116.726562 " fill-opacity="1" fill-rule="nonzero"/></g></g><g clip-path="url(#da783d3d16)"><g clip-path="url(#3d4ce5ec0a)"><g clip-path="url(#cb4efef1e2)"><path fill="#ffffff" d="M 341.425781 101.84375 L 389.136719 128.457031 L 345.269531 207.105469 L 297.558594 180.492188 Z M 341.425781 101.84375 " fill-opacity="1" fill-rule="nonzero"/></g></g></g><g clip-path="url(#525dd20638)"><g clip-path="url(#cc8a6b3fa2)"><g clip-path="url(#801f8c150b)"><path fill="#ffffff" d="M 382.90625 125.171875 L 430.613281 151.785156 L 386.746094 230.433594 L 339.035156 203.820312 Z M 382.90625 125.171875 " fill-opacity="1" fill-rule="nonzero"/></g></g></g><g clip-path="url(#61300150ef)"><g clip-path="url(#57c0591083)"><path fill="#000000" d="M 254.875 80.042969 L 281.011719 95.007812 L 259.328125 132.886719 L 233.1875 117.921875 Z M 254.875 80.042969 " fill-opacity="1" fill-rule="nonzero"/></g></g><g clip-path="url(#054bd7abe3)"><g clip-path="url(#7b09f819bd)"><path fill="#000000" d="M 468.796875 199.246094 L 490.777344 211.398438 L 469.65625 249.609375 L 447.671875 237.457031 Z M 468.796875 199.246094 " fill-opacity="1" fill-rule="nonzero"/></g></g><g clip-path="url(#ac8066e536)"><g clip-path="url(#a022d9fbb7)"><g clip-path="url(#618f9d3055)"><path fill="#dd571c" d="M 389.746094 9.019531 L 526 176.125 L 430.296875 254.160156 L 294.042969 87.054688 Z M 389.746094 9.019531 " fill-opacity="1" fill-rule="nonzero"/></g></g></g><g clip-path="url(#5718dccce5)"><g clip-path="url(#24dfff26f5)"><g clip-path="url(#c3242f3446)"><g clip-path="url(#175656e99a)"><path stroke-linecap="butt" transform="matrix(0.620302, 0.760749, -0.760749, 0.620302, 389.746915, 9.021974)" fill="none" stroke-linejoin="miter" d="M 19.101293 0.00229297 L 200.348868 0.00049375 C 205.417402 -0.000173086 210.272035 2.012149 213.857827 5.593193 C 217.438021 9.174806 219.451249 14.035843 219.448832 19.101862 L 219.449967 106.696344 C 219.453149 111.761794 217.438312 116.619511 213.854184 120.202789 C 210.275655 123.785497 205.417133 125.795641 200.348599 125.796308 L 19.101024 125.798107 C 14.035005 125.79569 9.174773 123.783937 5.59458 120.202324 C 2.014386 116.620711 -0.0013573 111.762758 0.00106007 106.696739 L -0.0000752596 19.102257 C -0.000742096 14.033723 2.014095 9.176006 5.595708 5.595812 C 9.176752 2.01002 14.035274 -0.000124404 19.101293 0.00229297 Z M 19.101293 0.00229297 " stroke="#ffffff" stroke-width="7.640682" stroke-opacity="1" stroke-miterlimit="4"/></g></g></g></g><g clip-path="url(#70b6e2549a)"><g clip-path="url(#dc83641fb8)"><g clip-path="url(#d82dedad62)"><path fill="#000000" d="M 481.046875 185.289062 L 507.726562 218.007812 L 475.003906 244.6875 L 448.328125 211.96875 Z M 481.046875 185.289062 " fill-opacity="1" fill-rule="nonzero"/></g></g></g><g clip-path="url(#a4f9343e62)"><g clip-path="url(#005d7fa454)"><g clip-path="url(#969a870aff)"><g clip-path="url(#1689652f81)"><path stroke-linecap="butt" transform="matrix(0.620302, 0.760749, -0.760749, 0.620302, 481.046015, 185.289641)" fill="none" stroke-linejoin="miter" d="M 21.49923 -0.00101479 C 9.625614 0.00155343 0.000576707 9.62698 0.000060728 21.498082 C 0.000114143 33.374782 9.625541 42.99982 21.502241 42.999766 C 33.373343 43.000282 42.99838 33.374856 43.001411 21.50067 C 42.998843 9.627053 33.375931 -0.00106821 21.49923 -0.00101479 Z M 21.49923 -0.00101479 " stroke="#ffffff" stroke-width="7.640682" stroke-opacity="1" stroke-miterlimit="4"/></g></g></g></g><g clip-path="url(#3b8b6880b8)"><g clip-path="url(#90d1c897d2)"><g clip-path="url(#82472fb42d)"><path fill="#000000" d="M 344.917969 18.339844 L 371.597656 51.058594 L 338.878906 77.738281 L 312.199219 45.019531 Z M 344.917969 18.339844 " fill-opacity="1" fill-rule="nonzero"/></g></g></g><g clip-path="url(#d43fd1d23a)"><g clip-path="url(#4e8bebdd11)"><g clip-path="url(#0e15149bab)"><g clip-path="url(#ae8c08191c)"><path stroke-linecap="butt" transform="matrix(0.620302, 0.760749, -0.760749, 0.620302, 344.917484, 18.339398)" fill="none" stroke-linejoin="miter" d="M 21.499798 -0.0000591845 C 9.626181 0.00250904 -0.00194037 9.625421 0.000627854 21.499037 C 0.000681269 33.375738 9.626108 43.000775 21.499724 42.998207 C 33.37391 43.001238 42.998947 33.375811 42.998894 21.499111 C 43.001925 9.624925 33.376498 -0.000112599 21.499798 -0.0000591845 Z M 21.499798 -0.0000591845 " stroke="#ffffff" stroke-width="7.640682" stroke-opacity="1" stroke-miterlimit="4"/></g></g></g></g><g clip-path="url(#fc8c4b6ca8)"><g clip-path="url(#243132e61b)"><path fill="#a6a6a6" d="M 410.875 78.589844 L 433.773438 89.707031 L 395.730469 168.066406 L 372.832031 156.949219 Z M 410.875 78.589844 " fill-opacity="1" fill-rule="nonzero"/></g></g><g clip-path="url(#1b72dab1b7)"><g clip-path="url(#c58c77014c)"><g clip-path="url(#f85537c22f)"><path fill="#ffffff" d="M 412.339844 63.160156 L 446.863281 105.5 L 377.070312 162.410156 L 342.546875 120.070312 Z M 412.339844 63.160156 " fill-opacity="1" fill-rule="nonzero"/></g></g></g><g clip-path="url(#aef27d4816)"><g clip-path="url(#dc8edf6e14)"><g clip-path="url(#66f7bddcd1)"><path fill="#ffffff" d="M 442.285156 100.144531 L 476.808594 142.484375 L 407.011719 199.394531 L 372.488281 157.054688 Z M 442.285156 100.144531 " fill-opacity="1" fill-rule="nonzero"/></g></g></g><g clip-path="url(#dbe591273a)"><g clip-path="url(#36f9563525)"><path fill="#000000" d="M 339.945312 10.957031 L 358.714844 34.511719 L 324.582031 61.714844 L 305.808594 38.160156 Z M 339.945312 10.957031 " fill-opacity="1" fill-rule="nonzero"/></g></g><g clip-path="url(#d2d1c8d23e)"><g clip-path="url(#6578dc943c)"><path fill="#000000" d="M 494.78125 200.6875 L 510.726562 220.09375 L 476.992188 247.8125 L 461.046875 228.40625 Z M 494.78125 200.6875 " fill-opacity="1" fill-rule="nonzero"/></g></g></svg>